<svg xmlns="http://www.w3.org/2000/svg" xmlns:xlink="http://www.w3.org/1999/xlink" width="88" height="87.833" viewBox="0 0 88 87.833"><defs><style>.a{fill:none;}.b{fill:url(#a);}.c{clip-path:url(#b);}.d{fill:#fff;}.e{fill:rgba(255,255,255,0.38);}</style><linearGradient id="a" x2="0" y2="1" gradientUnits="objectBoundingBox"><stop offset="0" stop-color="#fd7487"/><stop offset="1" stop-color="#ff397c"/></linearGradient><clipPath id="b"><rect class="a" width="44" height="43.564"/></clipPath></defs><g transform="translate(-0.5 0.167)"><path class="b" d="M0,30.283A30.143,30.143,0,0,1,30,0H58A30.143,30.143,0,0,1,88,30.283V57.55A30.143,30.143,0,0,1,58,87.833H30A30.143,30.143,0,0,1,0,57.55Z" transform="translate(0.5 -0.167)"/><g transform="translate(22.5 21.833)"><rect class="a" width="44" height="44"/><g class="c"><path class="d" d="M22.512,21.344l-7.365-2.219-2.9-7.154L22.5.854q-.322-.106-.649-.2T21.193.483q-.33-.08-.662-.147t-.667-.12q-.335-.054-.672-.094T18.517.055Q18.179.028,17.84.014T17.162,0A17.159,17.159,0,1,0,33.1,10.825L22.5,21.337l.007.007Z" transform="translate(9.665 0)"/><path class="e" d="M17.512,9.789,7.723,0,1.934,5.789l.029.029-.115.121-.112.123q-.055.062-.109.126t-.106.129q-.052.065-.1.131t-.1.134q-.049.067-.1.136t-.093.138q-.046.07-.09.14t-.086.143Q.911,7.21.87,7.283T.791,7.43Q.752,7.5.715,7.578t-.072.15Q.608,7.8.574,7.881T.51,8.034q-.031.077-.061.155t-.057.157Q.364,8.425.338,8.5t-.05.159q-.024.08-.046.16T.2,8.985q-.02.081-.038.162T.129,9.31q-.016.082-.03.164t-.026.165Q.06,9.721.05,9.8T.032,9.97q-.008.083-.014.166t-.01.166q0,.083-.006.167t0,.167a6.915,6.915,0,0,0,12.154,4.519L17.512,9.8V9.789Z" transform="translate(0 26.009)"/></g></g></g></svg>