<svg xmlns="http://www.w3.org/2000/svg" xmlns:xlink="http://www.w3.org/1999/xlink" width="88" height="88" viewBox="0 0 88 88"><defs><style>.a{fill:url(#a);}.b,.c{opacity:0.3;}.c,.d{fill:#fff;}.e{fill:rgba(255,255,255,0.5);}</style><linearGradient id="a" x1="0.5" x2="0.5" y2="1" gradientUnits="objectBoundingBox"><stop offset="0" stop-color="#6fd1f9"/><stop offset="1" stop-color="#407dea"/></linearGradient></defs><path class="a" d="M39.276,0h9.448C59.8,0,65.74,1.532,71.118,4.408A29.986,29.986,0,0,1,83.592,16.882C86.468,22.26,88,28.2,88,39.276v9.448C88,59.8,86.468,65.74,83.592,71.118A29.987,29.987,0,0,1,71.118,83.592C65.74,86.468,59.8,88,48.724,88H39.276C28.2,88,22.26,86.468,16.882,83.592A29.986,29.986,0,0,1,4.408,71.118C1.532,65.74,0,59.8,0,48.724V39.276C0,28.2,1.532,22.26,4.408,16.882A29.986,29.986,0,0,1,16.882,4.408C22.26,1.532,28.2,0,39.276,0Z"/><g class="b" transform="translate(30 43.26)"><path class="c" d="M3.24,6.48A3.24,3.24,0,0,1,3.24,0C5.029,0,6.48,3.24,6.48,3.24S5.029,6.48,3.24,6.48Z"/><path class="c" d="M3.24,6.48A3.24,3.24,0,1,1,6.48,3.24,3.241,3.241,0,0,1,3.24,6.48Z" transform="translate(22.69)"/></g><path class="d" d="M34.792,33.471a3,3,0,0,1-3.083-1.894v-2.66H6.279v2.659a3,3,0,0,1-3.083,1.9,3.228,3.228,0,0,1-3.2-1.9V14.3l0-.011C.48,13.07,4.674,2.32,5.318,1.1A2.612,2.612,0,0,1,7.658,0c.161,0,.261.01.262.01H30.068s.1-.01.262-.01a2.612,2.612,0,0,1,2.34,1.1c.672,1.268,5.272,13.08,5.318,13.2V31.576A3.235,3.235,0,0,1,34.792,33.471ZM30.336,16.528a3.239,3.239,0,1,0,3.239,3.239A3.242,3.242,0,0,0,30.336,16.528Zm-22.684,0a3.239,3.239,0,1,0,3.238,3.239A3.243,3.243,0,0,0,7.652,16.528ZM8.11,2.644a.961.961,0,0,0-.9.5c-.279.588-2.858,8.463-2.885,8.543,0,0,.033.5.443.5H33.217c.41,0,.443-.495.443-.5-.026-.079-2.607-7.959-2.884-8.543a1.055,1.055,0,0,0-1.009-.5H8.222A.947.947,0,0,0,8.11,2.644Z" transform="translate(25 27)"/><rect class="e" width="21" height="3" transform="translate(33.5 24.833)"/></svg>