<svg xmlns="http://www.w3.org/2000/svg" xmlns:xlink="http://www.w3.org/1999/xlink" width="51.979" height="52" viewBox="0 0 51.979 52"><defs><style>.a{fill:none;}.b{fill:#ccc;opacity:0;}.c{clip-path:url(#a);}.d{fill:#1b76fe;}.e{fill:#ffc300;}</style><clipPath id="a"><rect class="a" width="47.253" height="50.053"/></clipPath></defs><g transform="translate(0)"><path class="b" d="M0,0H51.979V52H0Z" transform="translate(0 0)"/><g transform="translate(3.143 0)"><rect class="a" width="47.253" height="50.053"/><g class="c"><g transform="translate(0 0)"><path class="d" d="M4.689,0A4.24,4.24,0,0,0,1.323,1.45,5.7,5.7,0,0,0,0,5.138V33.721A5.75,5.75,0,0,0,.361,35.7a5.054,5.054,0,0,0,1.082,1.712A6.817,6.817,0,0,0,3,38.463a5.054,5.054,0,0,0,1.925.4H42.683a4.481,4.481,0,0,0,1.8-.4,3.805,3.805,0,0,0,1.443-1.055,7.583,7.583,0,0,0,.963-1.712,5.229,5.229,0,0,0,.361-1.976V23.184H35.468a4.182,4.182,0,0,1-2.765-.791,4.333,4.333,0,0,1-1.322-1.712,6.006,6.006,0,0,1-.6-2.635A5.121,5.121,0,0,1,32.1,14.358a4.71,4.71,0,0,1,3.366-1.448H47.253V5.138A5.117,5.117,0,0,0,45.93,1.45,4.706,4.706,0,0,0,42.565,0H4.689" transform="translate(0 11.195)"/><path class="e" d="M23.566,8.561H0C1.923,7.507,3.606,6.453,5.29,5.532c1.443-.791,2.886-1.714,4.328-2.5a33.055,33.055,0,0,1,3.367-1.976A7.078,7.078,0,0,1,16.23,0a6.058,6.058,0,0,1,2.405.527,4.931,4.931,0,0,1,1.923,1.712Z" transform="translate(16.592 0)"/><path class="d" d="M0,2.588A2.558,2.558,0,0,1,.776.776,2.351,2.351,0,0,1,2.587,0,2.555,2.555,0,0,1,4.4.776a2.354,2.354,0,0,1,.777,1.812A2.559,2.559,0,0,1,4.4,4.4a2.349,2.349,0,0,1-1.812.777A2.556,2.556,0,0,1,.776,4.4,1.869,1.869,0,0,1,0,2.588Z" transform="translate(32.779 25.89)"/></g></g></g></g></svg>