<svg xmlns="http://www.w3.org/2000/svg" width="51.979" height="52" viewBox="0 0 51.979 52"><defs><style>.a{fill:#ccc;opacity:0;}.b{fill:#ffc300;}.c{fill:#1b76ff;}</style></defs><g transform="translate(0)"><path class="a" d="M0,0H51.979V52H0Z" transform="translate(0 0)"/><g transform="translate(4.725 2.363)"><path class="b" d="M12.258,0H2.216A2.42,2.42,0,0,0,0,2.591a2.426,2.426,0,0,0,2.216,2.6h10.1a2.422,2.422,0,0,0,2.156-2.6A2.42,2.42,0,0,0,12.258,0Z" transform="translate(13.814 0)"/><path class="c" d="M36.668,46.7H5.375a5.136,5.136,0,0,1-4.166-1.53A6.57,6.57,0,0,1,0,40.807V5.957a7.211,7.211,0,0,1,1.008-4.3C1.815.543,3.143,0,5.068,0h5.061a5.026,5.026,0,0,0-.082.861,5.055,5.055,0,0,0,.983,2.982,3.029,3.029,0,0,0,2.388,1.346H28.78a2.967,2.967,0,0,0,2.305-1.346,5.125,5.125,0,0,0,.97-2.982A4.793,4.793,0,0,0,31.974,0h5a5.286,5.286,0,0,1,4.186,1.659,6.416,6.416,0,0,1,1.366,4.3V40.809c0,2.1-.475,3.586-1.451,4.535A6.085,6.085,0,0,1,36.668,46.7ZM9.971,30.949a1.548,1.548,0,0,0-1.479,1.571c0,.824.777,1.888,1.6,1.888H31.839c.775,0,1.354-1,1.354-1.888a1.6,1.6,0,0,0-1.539-1.571Zm.378-9.228a1.664,1.664,0,0,0-1.479,1.7c0,.847.5,1.76,1.311,1.76H31.927a1.874,1.874,0,0,0,1.644-1.76,1.716,1.716,0,0,0-1.539-1.7Zm0-9.477a1.664,1.664,0,0,0-1.479,1.7c0,.847.5,1.76,1.311,1.76H31.927a1.874,1.874,0,0,0,1.644-1.76,1.716,1.716,0,0,0-1.539-1.7Z" transform="translate(0 1.729)"/></g></g></svg>