<svg xmlns="http://www.w3.org/2000/svg" width="51.979" height="52" viewBox="0 0 51.979 52"><defs><style>.a{fill:#ccc;opacity:0;}.b{fill:#1b76fe;}.c{fill:#ffc300;}</style></defs><g transform="translate(0 0)"><path class="a" d="M0,0H51.979V52H0Z" transform="translate(0 0)"/><g transform="translate(0 2.977)"><g transform="translate(0 0)"><path class="b" d="M7.422,27.94a8.732,8.732,0,0,1,17.143,0h6.6a8.732,8.732,0,0,1,17.143,0h.175a3.517,3.517,0,0,0,3.5-3.535V8.69a3.539,3.539,0,0,0-1.97-3.182L41.513.355a3.467,3.467,0,0,0-3.386.184,3.544,3.544,0,0,0-1.642,3V15.566H0V24.4A3.517,3.517,0,0,0,3.5,27.94H7.422" transform="translate(0 11.026)"/><path class="b" d="M3.5,0H29.488a3.517,3.517,0,0,1,3.5,3.535V23.484H0V3.535A3.517,3.517,0,0,1,3.5,0Z" transform="translate(0 0)"/><path class="c" d="M5.248,10.606A5.3,5.3,0,0,0,5.248,0a5.3,5.3,0,0,0,0,10.606Z" transform="translate(10.735 35.44)"/></g><path class="c" d="M5.248,10.606A5.3,5.3,0,0,0,5.248,0a5.3,5.3,0,0,0,0,10.606Z" transform="translate(34.485 35.44)"/></g></g></svg>