<svg xmlns="http://www.w3.org/2000/svg" xmlns:xlink="http://www.w3.org/1999/xlink" width="88" height="88" viewBox="0 0 88 88"><defs><style>.a{fill:none;}.b{fill:url(#a);}.c{clip-path:url(#b);}.d,.e{fill:#fff;}.e{opacity:0.386;}.f{fill:#5fd584;opacity:0.3;}</style><linearGradient id="a" x2="0" y2="1" gradientUnits="objectBoundingBox"><stop offset="0" stop-color="#68e28a"/><stop offset="1" stop-color="#58cc7f"/></linearGradient><clipPath id="b"><rect class="a" width="50" height="50"/></clipPath></defs><path class="b" d="M0,30A30,30,0,0,1,30,0H58A30,30,0,0,1,88,30V58A30,30,0,0,1,58,88H30A30,30,0,0,1,0,58Z"/><g transform="translate(22 18)"><rect class="a" width="50" height="50"/><g class="c"><path class="d" d="M0,0H27.083V39.583H0V0Z" transform="translate(44.792 16.667) rotate(90)"/><path class="e" d="M0,11.458,23.958,0l5.208,11.458" transform="translate(9.375 5.208)"/><path class="f" d="M4.167,2.083A2.083,2.083,0,1,1,2.083,0,2.083,2.083,0,0,1,4.167,2.083Z" transform="translate(11.458 21.875)"/><path class="f" d="M4.167,2.083A2.083,2.083,0,1,1,2.083,0,2.083,2.083,0,0,1,4.167,2.083Z" transform="translate(11.458 28.125)"/><path class="f" d="M4.167,2.083A2.083,2.083,0,1,1,2.083,0,2.083,2.083,0,0,1,4.167,2.083Z" transform="translate(11.458 34.375)"/></g></g></svg>