<svg xmlns="http://www.w3.org/2000/svg" xmlns:xlink="http://www.w3.org/1999/xlink" width="88" height="87.011" viewBox="0 0 88 87.011"><defs><style>.a{fill:url(#a);}.b,.c{fill:#fff;}.c{opacity:0.473;}</style><linearGradient id="a" x1="-0.162" y1="0.081" x2="0" y2="1.081" gradientUnits="objectBoundingBox"><stop offset="0" stop-color="#75ecc8"/><stop offset="1" stop-color="#54baa1"/></linearGradient></defs><g transform="translate(23.67 120.817)"><path class="a" d="M0,30A30,30,0,0,1,30,0H58A30,30,0,0,1,88,30V57.011a30,30,0,0,1-30,30H30a30,30,0,0,1-30-30Z" transform="translate(-23.67 -120.817)"/><path class="b" d="M2074.387,93.63h-30.676a2.882,2.882,0,0,1,0-5.764h1.347V58.016a5.006,5.006,0,0,1,5-5h17.49a5.006,5.006,0,0,1,5,5V87.865h1.838a2.882,2.882,0,1,1,0,5.764Zm-22.728-20.5a2,2,0,0,0,0,4h13a2,2,0,0,0,0-4Zm0-8a2,2,0,0,0,0,4h13a2,2,0,0,0,0-4Z" transform="translate(-2040.83 -149.113)"/><path class="c" d="M12.51,0H4.41a3,3,0,0,0-3,3V13.518a5.972,5.972,0,0,0,.93,3.21H1.394a1.394,1.394,0,1,0,0,2.788H7.251l.159,0h2.1l.159,0h5.858a1.394,1.394,0,1,0,0-2.788H14.58a5.972,5.972,0,0,0,.93-3.21V3A3,3,0,0,0,12.51,0Z" transform="translate(26.082 -75.188)"/></g></svg>