<svg xmlns="http://www.w3.org/2000/svg" xmlns:xlink="http://www.w3.org/1999/xlink" width="88" height="88" viewBox="0 0 88 88"><defs><style>.a{fill:url(#a);}.b{fill:#fff;stroke:#fff;stroke-linejoin:round;stroke-miterlimit:10;stroke-width:1.333px;stroke-dasharray:0 0;}.c{fill:#06d8b0;}</style><linearGradient id="a" x1="0.5" x2="0.5" y2="1" gradientUnits="objectBoundingBox"><stop offset="0" stop-color="#06eec4"/><stop offset="1" stop-color="#06b791"/></linearGradient></defs><path class="a" d="M39.276,0h9.448C59.8,0,65.74,1.532,71.118,4.408A29.986,29.986,0,0,1,83.592,16.882C86.468,22.26,88,28.2,88,39.276v9.448C88,59.8,86.468,65.74,83.592,71.118A29.987,29.987,0,0,1,71.118,83.592C65.74,86.468,59.8,88,48.724,88H39.276C28.2,88,22.26,86.468,16.882,83.592A29.986,29.986,0,0,1,4.408,71.118C1.532,65.74,0,59.8,0,48.724V39.276C0,28.2,1.532,22.26,4.408,16.882A29.986,29.986,0,0,1,16.882,4.408C22.26,1.532,28.2,0,39.276,0Z"/><path class="b" d="M18.4,46S36.8,32.2,36.8,17.25C36.8,7.723,28.562,0,18.4,0S0,7.723,0,17.25C0,32.2,18.4,46,18.4,46Z" transform="translate(27 20)"/><path class="c" d="M5.5,24.75H0V0H9.625a8.25,8.25,0,1,1,0,16.5H5.5v8.249ZM5.5,5.5V11H9.9a2.75,2.75,0,1,0,0-5.5Z" transform="translate(38 28)"/></svg>