<svg xmlns="http://www.w3.org/2000/svg" xmlns:xlink="http://www.w3.org/1999/xlink" width="88" height="88" viewBox="0 0 88 88"><defs><style>.a{fill:url(#a);}.b,.c{fill:#fff;}.c{opacity:0.49;}</style><linearGradient id="a" x1="0.089" y1="0.25" x2="0.589" y2="1.073" gradientUnits="objectBoundingBox"><stop offset="0" stop-color="#ffca3f"/><stop offset="1" stop-color="#fb0"/></linearGradient></defs><g transform="translate(0 149.015)"><path class="a" d="M0,30A30,30,0,0,1,30,0H58A30,30,0,0,1,88,30V58A30,30,0,0,1,58,88H30A30,30,0,0,1,0,58Z" transform="translate(0 -149.015)"/><g transform="translate(21 23.276)"><path class="b" d="M39.5,2.02A4.366,4.366,0,0,0,35.8,0a4.48,4.48,0,0,0-1,.112l-.18.04L23.722,6.31,23.6,6.153a3.466,3.466,0,0,0-.827-.772l-.283-.189L8.786.256A3.1,3.1,0,0,0,7.259.081L1.469.862A1.679,1.679,0,0,0,0,2.5v10.22a1.684,1.684,0,0,0,1.7,1.661H5.839L19.9,17.122a2.211,2.211,0,0,0,1.473-.229L39.039,7.181l.171-.211A4.152,4.152,0,0,0,39.5,2.02Z" transform="translate(5.817 -122.453)"/><path class="b" d="M13.143,26.285A13.143,13.143,0,0,1,3.849,3.849,13.143,13.143,0,0,1,22.436,22.437,13.057,13.057,0,0,1,13.143,26.285ZM8.227,14.528A1.329,1.329,0,0,0,6.9,15.855V15.9a1.328,1.328,0,0,0,1.327,1.327h3.1v1.346a1.327,1.327,0,1,0,2.654,0V17.229h3.1A1.329,1.329,0,0,0,18.4,15.9v-.049a1.329,1.329,0,0,0-1.327-1.328h-3.1V12.7h3.1A1.329,1.329,0,0,0,18.4,11.371v-.049A1.329,1.329,0,0,0,17.073,10H14.611l-.005-.006-.079-.079,1.849-1.881a1.334,1.334,0,0,0,0-1.86l-.041-.041a1.307,1.307,0,0,0-.921-.377H15.4a1.312,1.312,0,0,0-.927.393L12.65,8,10.827,6.143a1.316,1.316,0,0,0-1.877,0l-.024.025a1.334,1.334,0,0,0,0,1.86l1.847,1.88-.078.08,0,.007H8.227A1.328,1.328,0,0,0,6.9,11.323v.047A1.329,1.329,0,0,0,8.227,12.7h3.1v1.83Z" transform="translate(9.857 -151.291)"/><path class="c" d="M2.044,0H.741A.731.731,0,0,0,0,.718V13.276a.731.731,0,0,0,.741.718h1.3a.731.731,0,0,0,.741-.718V.718A.728.728,0,0,0,2.044,0Z" transform="translate(0 -121.564)"/></g></g></svg>