<svg xmlns="http://www.w3.org/2000/svg" xmlns:xlink="http://www.w3.org/1999/xlink" width="88" height="88" viewBox="0 0 88 88"><defs><style>.a{fill:url(#a);}.b{fill:rgba(255,255,255,0.35);}.c{fill:#fff;}</style><linearGradient id="a" x1="0.5" x2="0.5" y2="1" gradientUnits="objectBoundingBox"><stop offset="0" stop-color="#6fd1f9"/><stop offset="1" stop-color="#407dea"/></linearGradient></defs><path class="a" d="M39.276,0h9.448C59.8,0,65.74,1.532,71.118,4.408A29.986,29.986,0,0,1,83.592,16.882C86.468,22.26,88,28.2,88,39.276v9.448C88,59.8,86.468,65.74,83.592,71.118A29.987,29.987,0,0,1,71.118,83.592C65.74,86.468,59.8,88,48.724,88H39.276C28.2,88,22.26,86.468,16.882,83.592A29.986,29.986,0,0,1,4.408,71.118C1.532,65.74,0,59.8,0,48.724V39.276C0,28.2,1.532,22.26,4.408,16.882A29.986,29.986,0,0,1,16.882,4.408C22.26,1.532,28.2,0,39.276,0Z"/><g transform="translate(22.793 23.785)"><path class="b" d="M0,2.574a.8.8,0,0,0,.819.819H25.273a.8.8,0,0,0,.819-.819V.819A.8.8,0,0,0,25.273,0H.819A.8.8,0,0,0,0,.819V2.574Z" transform="translate(9.851 6.201)"/><path class="c" d="M38.167,3.042a.993.993,0,0,1,.936.819l2.691,11.7a1.108,1.108,0,0,0,.936.819h2.223a.538.538,0,0,0,.585-.7L42.262.819A.993.993,0,0,0,41.326,0H4.235A.9.9,0,0,0,3.3.819L.023,15.562a.638.638,0,0,0,.585.819H2.714a.993.993,0,0,0,.936-.819l2.691-11.7a.993.993,0,0,1,.936-.819Z" transform="translate(0 0)"/><path class="c" d="M41.888,25.961H3.628a2.127,2.127,0,0,1-1.873-1.52L.117,8.06A1.135,1.135,0,0,1,.156,6.977a1.041,1.041,0,0,1,.9-.438H44.346a1.085,1.085,0,0,1,.894.415A1.25,1.25,0,0,1,45.4,8.06L43.761,24.441A2.127,2.127,0,0,1,41.888,25.961ZM17.083,9.815a.8.8,0,0,0-.819.819v1.639a.8.8,0,0,0,.819.819h11.35a.8.8,0,0,0,.82-.819V10.633a.8.8,0,0,0-.82-.819ZM34.989,3.276H10.535a.8.8,0,0,1-.82-.819V.819A.8.8,0,0,1,10.535,0H34.989a.8.8,0,0,1,.819.819V2.457A.8.8,0,0,1,34.989,3.276Z" transform="translate(0.136 12.754)"/></g></svg>