<svg xmlns="http://www.w3.org/2000/svg" width="23.134" height="24.667" viewBox="0 0 23.134 24.667"><defs><style>.a{fill:#1b76fe;}</style></defs><path class="a" d="M35.243,32.712A1.45,1.45,0,0,1,33.751,34.1a17.424,17.424,0,0,1-16.825-18.04,1.449,1.449,0,0,1,1.492-1.393l3.5.123a1.435,1.435,0,0,1,1.393,1.475,11.387,11.387,0,0,0,.419,3.462,1.426,1.426,0,0,1-.4,1.452L21.3,23.094a14.723,14.723,0,0,0,5.748,6.171l2.025-1.891a1.465,1.465,0,0,1,1.483-.3,10.9,10.9,0,0,0,3.416.66,1.448,1.448,0,0,1,1.392,1.493l-.122,3.487ZM31.775,22.9a.885.885,0,1,1-1.71-.458,2.8,2.8,0,0,0-1.982-3.434h0a.885.885,0,0,1,.4-1.725l.06.016a4.574,4.574,0,0,1,3.234,5.6Zm3.563.956a.886.886,0,1,1-1.711-.459,6.492,6.492,0,0,0-4.589-7.951.885.885,0,1,1,.458-1.71,8.263,8.263,0,0,1,5.843,10.119ZM39.614,25a.885.885,0,0,1-1.71-.458h0a10.918,10.918,0,0,0-7.719-13.373h0a.885.885,0,0,1,.458-1.709A12.689,12.689,0,0,1,39.614,25Z" transform="translate(-16.915 -9.439)"/></svg>