<svg xmlns="http://www.w3.org/2000/svg" xmlns:xlink="http://www.w3.org/1999/xlink" width="87.999" height="88" viewBox="0 0 87.999 88"><defs><style>.a{fill:url(#a);}.b{fill:#71ffe8;opacity:0.5;}.c{fill:#fff;}</style><linearGradient id="a" x1="0.5" x2="0.5" y2="1" gradientUnits="objectBoundingBox"><stop offset="0" stop-color="#06eec4"/><stop offset="1" stop-color="#06b791"/></linearGradient></defs><g transform="translate(-0.5 0.167)"><path class="a" d="M39.776,87.834c-11.077,0-17.016-1.532-22.395-4.408A29.985,29.985,0,0,1,4.908,70.951C2.031,65.574.5,59.634.5,48.558V39.11c0-11.076,1.531-17.016,4.407-22.394A29.988,29.988,0,0,1,17.382,4.241C22.76,1.365,28.7-.167,39.776-.167h9.447C60.3-.167,66.24,1.365,71.618,4.241A29.985,29.985,0,0,1,84.092,16.716C86.969,22.093,88.5,28.033,88.5,39.11v9.448c0,11.076-1.531,17.016-4.407,22.394A29.982,29.982,0,0,1,71.618,83.425C66.24,86.3,60.3,87.834,49.224,87.834Z"/><g transform="translate(24.997 22)"><path class="b" d="M2.334,0h7A2.281,2.281,0,0,1,11.67,2.224V28.365a2.281,2.281,0,0,1-2.334,2.223h-7A2.279,2.279,0,0,1,0,28.365V2.224A2.279,2.279,0,0,1,2.334,0Z" transform="translate(24.438 12)"/><path class="c" d="M-20.768,44h0L-3.75,42.612V42.8H0V2.887A3.008,3.008,0,0,0-.848.732,2.452,2.452,0,0,0-2.59,0H-27.68a2.722,2.722,0,0,0-2.592,2.887V42.8h3.75V3.75H-4.006L-20.768,5.224Zm9.108-23.05h.054l.054,0,.053.006.053.009.053.012.051.014.051.017.05.02c.016.006.033.014.049.022a.475.475,0,0,1,.048.024l.047.026.046.029.044.031.042.032.041.036.027.025.013.012.035.036.037.044c.012.014.023.028.033.042s.021.029.031.044.02.03.029.045.012.019.017.029l.01.018.024.049.022.049c.007.017.014.033.019.05s.012.034.017.051.01.034.014.052.007.03.01.044l0,.008,0,.008c0,.015.006.03.008.045s0,.017,0,.026,0,.019,0,.028,0,.035,0,.053,0,.036,0,.054a1.087,1.087,0,0,1-.32.775,1.092,1.092,0,0,1-.778.322,1.1,1.1,0,0,1-1.1-1.1A1.1,1.1,0,0,1-11.66,20.95Z" transform="translate(30.273 0)"/></g></g></svg>