<svg xmlns="http://www.w3.org/2000/svg" xmlns:xlink="http://www.w3.org/1999/xlink" width="88" height="88" viewBox="0 0 88 88"><defs><style>.a{fill:url(#a);}.b,.c{fill:#fff;}.c{opacity:0.657;}.d{fill:#7996f9;}</style><linearGradient id="a" x1="1.015" y1="0.23" x2="0.183" y2="-0.136" gradientUnits="objectBoundingBox"><stop offset="0" stop-color="#8ba5fb"/><stop offset="1" stop-color="#6989f7"/></linearGradient></defs><g transform="translate(0 113.685)"><path class="a" d="M0,30A30,30,0,0,1,30,0H58A30,30,0,0,1,88,30V58A30,30,0,0,1,58,88H30A30,30,0,0,1,0,58Z" transform="translate(0 -113.685)"/><g transform="translate(24 24.384)"><path class="b" d="M37.2,5.84H18.743L17,1.629A2.64,2.64,0,0,0,14.56,0H2.64A2.64,2.64,0,0,0,0,2.64V8.16c0,.08,0,.16.011.24S0,8.56,0,8.64V27.08a2.8,2.8,0,0,0,2.8,2.8H37.2a2.8,2.8,0,0,0,2.8-2.8V8.64A2.8,2.8,0,0,0,37.2,5.84Z" transform="translate(0 -99.949)"/><path class="c" d="M29.76,19.12H13.383l-1.747-4.058A2.645,2.645,0,0,0,9.22,13.491H0V3.7A3.776,3.776,0,0,1,3.84,0H25.92a3.777,3.777,0,0,1,3.84,3.7V19.119ZM8.08,5.76c-.662,0-1.2.763-1.2,1.7s.538,1.7,1.2,1.7h13.6c.662,0,1.2-.763,1.2-1.7s-.538-1.7-1.2-1.7Z" transform="translate(7.2 -116.069)"/><path class="d" d="M6.831.517l1.137,2.3a.927.927,0,0,0,.7.506l2.54.369a.926.926,0,0,1,.513,1.581L9.88,7.067a.926.926,0,0,0-.266.82l.434,2.531A.927.927,0,0,1,8.7,11.4L6.431,10.2a.927.927,0,0,0-.863,0L3.3,11.4a.927.927,0,0,1-1.344-.977l.434-2.531a.926.926,0,0,0-.266-.82L.281,5.276A.926.926,0,0,1,.794,3.7l2.54-.369a.927.927,0,0,0,.7-.506L5.17.517A.926.926,0,0,1,6.831.517Z" transform="translate(6 -88.069)"/></g></g></svg>