<svg xmlns="http://www.w3.org/2000/svg" xmlns:xlink="http://www.w3.org/1999/xlink" width="88" height="88" viewBox="0 0 88 88"><defs><style>.a{fill:url(#a);}.b{fill:rgba(255,255,255,0.5);}.c{fill:#fff;}</style><linearGradient id="a" x1="0.5" x2="0.5" y2="1" gradientUnits="objectBoundingBox"><stop offset="0" stop-color="#6fd1f9"/><stop offset="1" stop-color="#407dea"/></linearGradient></defs><g transform="translate(24 24)"><path class="a" d="M39.276,0h9.448C59.8,0,65.74,1.532,71.118,4.408A29.986,29.986,0,0,1,83.592,16.882C86.468,22.26,88,28.2,88,39.276v9.448C88,59.8,86.468,65.74,83.592,71.118A29.987,29.987,0,0,1,71.118,83.592C65.74,86.468,59.8,88,48.724,88H39.276C28.2,88,22.26,86.468,16.882,83.592A29.986,29.986,0,0,1,4.408,71.118C1.532,65.74,0,59.8,0,48.724V39.276C0,28.2,1.532,22.26,4.408,16.882A29.986,29.986,0,0,1,16.882,4.408C22.26,1.532,28.2,0,39.276,0Z" transform="translate(-24 -24)"/><path class="b" d="M5.087,10.655V2.38A2.549,2.549,0,0,0,0,2.38V5.534l5.087,5.121Z" transform="translate(28.923 2.043)"/><path class="c" d="M30.511,40H9.266a4.062,4.062,0,0,1-3.233-1.268,5.121,5.121,0,0,1-1.047-3.44V29.1l0-6.51L1,20.905a2.235,2.235,0,0,1-.36-.365A2.839,2.839,0,0,1,1,16.583L17.564.941a3.48,3.48,0,0,1,4.758,0L39.015,16.877c.034.034.071.069.109.1a2.317,2.317,0,0,1,.249.258,2.842,2.842,0,0,1-.358,3.928l-3.636,1.139V35.292a4.7,4.7,0,0,1-1.475,3.6A5.075,5.075,0,0,1,30.511,40Zm-13.2-20.292a3.991,3.991,0,0,0-3.947,4.024,4.059,4.059,0,0,0,1.4,3.056l4.364,3.874a1.359,1.359,0,0,0,1.765.026l4.486-3.751a3.9,3.9,0,0,0,1.571-3.2,4.057,4.057,0,0,0-1.2-2.882,3.932,3.932,0,0,0-2.766-1.136,3.874,3.874,0,0,0-2.824,1.211A3.986,3.986,0,0,0,17.314,19.707Z" transform="translate(0 0)"/></g></svg>