<svg xmlns="http://www.w3.org/2000/svg" width="51.979" height="52" viewBox="0 0 51.979 52"><defs><style>.a{fill:#ccc;opacity:0;}.b{fill:#ffc300;}.c{fill:#1b76fe;}</style></defs><g transform="translate(0)"><path class="a" d="M0,0H51.979V52H0Z" transform="translate(0 0)"/><g transform="translate(5.907 2.895)"><path class="b" d="M1.6.563c-.207.164-.464.379-.772.648S.252,1.72,0,1.918l5.234,4.93a2.862,2.862,0,0,0,.432-.353c.128-.122.274-.26.433-.441s.353-.362.556-.551a1.67,1.67,0,0,0,.618-1.355,4.53,4.53,0,0,0-.247-1.174A5.381,5.381,0,0,0,5.94,1.417,4.852,4.852,0,0,0,4.616.391,3.839,3.839,0,0,0,3.2.012,2.015,2.015,0,0,0,1.6.563" transform="translate(32.888 23.076)"/><path class="b" d="M1.178,14.213l-.459,1.38c-.163.484-.309.963-.433,1.439s-.207.82-.247,1.052a1.254,1.254,0,0,0,.124,1c.168.189.5.248.988.172.247-.034.618-.118,1.108-.24s1.006-.248,1.54-.412c.53-.147,1.055-.32,1.576-.5a10.814,10.814,0,0,0,1.139-.441,5.274,5.274,0,0,0,.741-.438c.243-.181.468-.345.675-.5.04-.038.256-.252.645-.639.393-.4.869-.862,1.443-1.413l2.034-1.939,2.215-2.112,5.975-5.7L15.071,0Q11.748,3.117,9.1,5.636,7.988,6.7,6.88,7.782T4.846,9.746l-1.54,1.472-.795.765a4.652,4.652,0,0,0-.993,1.342c-.075.164-.19.45-.34.888" transform="translate(15.795 26.92)"/><path class="c" d="M9.834,43.171h0l-5.637,0a4.322,4.322,0,0,1-4.2-4V3.7A4.078,4.078,0,0,1,4.2,0H31.653a4.078,4.078,0,0,1,4.2,3.7V18.374ZM6.693,23.1v2.448h9.982V23.1Zm0-6.418v2.448H28.326V16.687Zm.415-6.656v2.449H28.74V10.03Z" transform="translate(0 0)"/></g></g></svg>