<svg xmlns="http://www.w3.org/2000/svg" xmlns:xlink="http://www.w3.org/1999/xlink" width="88" height="88" viewBox="0 0 88 88"><defs><style>.a{fill:url(#a);}.b,.c{fill:#fff;}.c{opacity:0.67;}</style><linearGradient id="a" x1="-0.197" y1="0.252" x2="0.307" y2="1.252" gradientUnits="objectBoundingBox"><stop offset="0" stop-color="#59cce0"/><stop offset="1" stop-color="#00a2ff"/></linearGradient></defs><path class="a" d="M0,30A30,30,0,0,1,30,0H58A30,30,0,0,1,88,30V58A30,30,0,0,1,58,88H30A30,30,0,0,1,0,58Z"/><g transform="translate(21 22)"><path class="b" d="M28.235,36.664H8.54L1.246,29.316a4.319,4.319,0,0,1,0-6.069L23.067,1.257A4.208,4.208,0,0,1,26.078,0h.013a4.186,4.186,0,0,1,3,1.257L43.219,15.5a4.313,4.313,0,0,1,0,6.068l-14.984,15.1ZM13.8,22.791l-.114,0a1.742,1.742,0,0,0,.114,3.481h8.434l.2,0a7.07,7.07,0,0,0,6.914-7.106V13.033l0-.114a1.742,1.742,0,0,0-3.481.114v6.134l0,.154a3.613,3.613,0,0,1-3.621,3.47Z" transform="translate(1.533 0)"/><path class="c" d="M0,3.34A3.34,3.34,0,0,1,3.34,0H41.13a3.34,3.34,0,0,1,3.34,3.34h0a3.34,3.34,0,0,1-3.34,3.34H3.34A3.34,3.34,0,0,1,0,3.34Z" transform="translate(0 34.455)"/></g></svg>