<svg xmlns="http://www.w3.org/2000/svg" xmlns:xlink="http://www.w3.org/1999/xlink" width="88" height="88" viewBox="0 0 88 88"><defs><style>.a{fill:url(#a);}.b{fill:rgba(255,255,255,0.4);}.c{fill:#fff;}</style><linearGradient id="a" x1="0.5" x2="0.5" y2="1" gradientUnits="objectBoundingBox"><stop offset="0" stop-color="#ffb163"/><stop offset="1" stop-color="#fe5f27"/></linearGradient></defs><g transform="translate(0)"><path class="a" d="M39.276,0h9.448C59.8,0,65.74,1.532,71.118,4.408A29.986,29.986,0,0,1,83.592,16.882C86.468,22.26,88,28.2,88,39.276v9.448C88,59.8,86.468,65.74,83.592,71.118A29.987,29.987,0,0,1,71.118,83.592C65.74,86.468,59.8,88,48.724,88H39.276C28.2,88,22.26,86.468,16.882,83.592A29.986,29.986,0,0,1,4.408,71.118C1.532,65.74,0,59.8,0,48.724V39.276C0,28.2,1.532,22.26,4.408,16.882A29.986,29.986,0,0,1,16.882,4.408C22.26,1.532,28.2,0,39.276,0Z" transform="translate(0)"/><g transform="translate(23 22.511)"><path class="b" d="M3.02,6.479,26.75.139a4.081,4.081,0,0,1,5,2.9l4.572,17.166a4.106,4.106,0,0,1-2.879,5.025L9.712,31.57a4.081,4.081,0,0,1-5-2.9L.141,11.5A4.106,4.106,0,0,1,3.02,6.479Z" transform="translate(5.538 0)"/><path class="c" d="M31.639,31.7H4.746A4.756,4.756,0,0,1,0,26.946V4.756A4.749,4.749,0,0,1,4.746,0H31.639a4.749,4.749,0,0,1,4.746,4.756v22.19A4.756,4.756,0,0,1,31.639,31.7ZM4.746,22.19a1.585,1.585,0,0,0,0,3.171H30.057a1.585,1.585,0,0,0,0-3.171Zm15.82-7.925a1.585,1.585,0,0,0,0,3.171h7.909a1.585,1.585,0,0,0,0-3.171ZM7.91,11.364h0l6.421,4.929a1.564,1.564,0,0,0,3.069-.444V7.925a1.582,1.582,0,1,0-3.164,0v4.09L7.752,7.259a1.582,1.582,0,0,0-3.006.666v7.925a1.582,1.582,0,1,0,3.164,0V11.364ZM20.566,6.34a1.585,1.585,0,0,0,0,3.17h7.909a1.585,1.585,0,0,0,0-3.17Z" transform="translate(0 10.299)"/></g></g></svg>