<svg xmlns="http://www.w3.org/2000/svg" xmlns:xlink="http://www.w3.org/1999/xlink" width="88" height="88" viewBox="0 0 88 88"><defs><style>.a{fill:url(#a);}.b{fill:rgba(255,255,255,0.5);}.c{fill:#fff;}</style><linearGradient id="a" x1="0.5" x2="0.5" y2="1" gradientUnits="objectBoundingBox"><stop offset="0" stop-color="#fde033"/><stop offset="1" stop-color="#f8ac14"/></linearGradient></defs><path class="a" d="M39.276,0h9.448C59.8,0,65.74,1.532,71.118,4.408A29.986,29.986,0,0,1,83.592,16.882C86.468,22.26,88,28.2,88,39.276v9.448C88,59.8,86.468,65.74,83.592,71.118A29.987,29.987,0,0,1,71.118,83.592C65.74,86.468,59.8,88,48.724,88H39.276C28.2,88,22.26,86.468,16.882,83.592A29.986,29.986,0,0,1,4.408,71.118C1.532,65.74,0,59.8,0,48.724V39.276C0,28.2,1.532,22.26,4.408,16.882A29.986,29.986,0,0,1,16.882,4.408C22.26,1.532,28.2,0,39.276,0Z"/><g transform="translate(18.333 14.667)"><path class="b" d="M0,0H27.421V12.451a1.59,1.59,0,0,1-.715,1.325,1.629,1.629,0,0,1-1.511.15L14.049,9.4a.815.815,0,0,0-.611,0L2.223,13.93a1.629,1.629,0,0,1-1.509-.152A1.589,1.589,0,0,1,0,12.455V0Z" transform="translate(11.948 44.618)"/><path class="c" d="M25.666,50.742A25.736,25.736,0,0,1,7.517,43.311a25.272,25.272,0,0,1-5.5-8.064,25.185,25.185,0,0,1,0-19.751,25.272,25.272,0,0,1,5.5-8.064,25.928,25.928,0,0,1,28.14-5.437,25.6,25.6,0,0,1,8.159,5.437,25.272,25.272,0,0,1,5.5,8.064,25.185,25.185,0,0,1,0,19.751,25.272,25.272,0,0,1-5.5,8.064,25.737,25.737,0,0,1-18.15,7.431Zm0-39.369a1.828,1.828,0,0,0-1.494.761l-4.38,6.188-7.432,2.121a1.84,1.84,0,0,0-.592.292l-.023.018a1.714,1.714,0,0,0-.308,2.439l4.726,5.946-.213,7.5a1.692,1.692,0,0,0,.1.635l.011.027a1.815,1.815,0,0,0,1.694,1.139,1.857,1.857,0,0,0,.606-.1l7.3-2.514,7.3,2.514a1.858,1.858,0,0,0,.609.1h.076a1.786,1.786,0,0,0,1.73-1.8l-.213-7.5,4.725-5.946a1.724,1.724,0,0,0,.3-.572l.008-.028a1.694,1.694,0,0,0-.15-1.3,1.786,1.786,0,0,0-1.082-.851L31.54,18.323l-4.381-6.188a1.753,1.753,0,0,0-.469-.454A1.841,1.841,0,0,0,25.668,11.373ZM19.46,33.929h0l.167-5.7v-.018a1.419,1.419,0,0,0-.322-.917l-3.679-4.517,5.787-1.612a1.558,1.558,0,0,0,.842-.578l3.41-4.7,3.412,4.7.01.014a1.557,1.557,0,0,0,.832.563l5.787,1.612-3.679,4.518-.012.014a1.418,1.418,0,0,0-.31.921l.166,5.7-5.684-1.908-.019-.006a1.634,1.634,0,0,0-1.022.006l-5.684,1.91Z" transform="translate(0 0)"/></g></svg>