<svg xmlns="http://www.w3.org/2000/svg" width="58.058" height="57.996" viewBox="0 0 58.058 57.996"><defs><style>.a{fill:#fec43c;}.b{fill:#ffd73a;}.c{fill:#873a18;}</style></defs><g transform="translate(0)"><path class="a" d="M0,29A29.029,29.029,0,1,0,29.029,0,29.013,29.013,0,0,0,0,29Z" transform="translate(0 0)"/><path class="b" d="M29.029,0A29.024,29.024,0,0,0,0,29,28.716,28.716,0,0,0,6.619,47.382a34.156,34.156,0,0,0,16.6,4.233A34.887,34.887,0,0,0,57.478,23.14,29.02,29.02,0,0,0,29.029,0Z" transform="translate(0 0)"/><path class="c" d="M15.967,31.636A16.638,16.638,0,0,1,.357,20.984a1.476,1.476,0,0,1,2.751-1.068,13.811,13.811,0,0,0,25.716,0,1.476,1.476,0,0,1,2.751,1.068A16.64,16.64,0,0,1,15.967,31.636ZM4.129,8.261h0A4.13,4.13,0,0,1,0,4.127,4.157,4.157,0,0,1,1.21,1.209,4.13,4.13,0,0,1,7.048,7.052,4.1,4.1,0,0,1,4.129,8.261Zm24.385,0h0A4.13,4.13,0,1,1,32.09,6.195,4.136,4.136,0,0,1,28.513,8.259Z" transform="translate(13.063 13.916)"/></g></svg>