<svg xmlns="http://www.w3.org/2000/svg" width="58.058" height="57.996" viewBox="0 0 58.058 57.996"><defs><style>.a{fill:#fec43c;}.b{fill:#ffd73a;}.c{fill:#873a18;}.d{fill:#fff;}.e{fill:#f44444;}</style></defs><g transform="translate(0)"><path class="a" d="M0,29A29.029,29.029,0,1,0,29.029,0,29.013,29.013,0,0,0,0,29Z" transform="translate(0 0)"/><path class="b" d="M57.478,23.14A29.042,29.042,0,0,0,0,29,28.716,28.716,0,0,0,6.619,47.382a34.156,34.156,0,0,0,16.6,4.233A34.887,34.887,0,0,0,57.478,23.14Z" transform="translate(0 0)"/><path class="c" d="M16.324,30.161h0A15.364,15.364,0,0,1,6.359,26.5a15.116,15.116,0,0,1-5.13-9.1,2.029,2.029,0,0,1,2.008-2.32H29.41a2.029,2.029,0,0,1,2.008,2.32,15.123,15.123,0,0,1-5.131,9.1A15.361,15.361,0,0,1,16.324,30.161ZM4.13,8.262A4.132,4.132,0,0,1,1.21,1.209,4.131,4.131,0,0,1,7.049,7.053,4.1,4.1,0,0,1,4.13,8.262Zm24.386,0A4.131,4.131,0,1,1,32.091,6.2,4.134,4.134,0,0,1,28.515,8.262Z" transform="translate(12.707 13.916)"/><path class="d" d="M28.179,0H2.053A2.029,2.029,0,0,0,.021,2.32,8.94,8.94,0,0,0,.253,3.538H29.921a9.028,9.028,0,0,0,.232-1.218A1.988,1.988,0,0,0,28.179,0Z" transform="translate(13.913 28.998)"/><path class="e" d="M13.818,0a5.364,5.364,0,0,0-4.3,2.2A5.2,5.2,0,0,0,5.225,0,5.24,5.24,0,0,0,0,4.756,15.169,15.169,0,0,0,9.522,8.062a15.169,15.169,0,0,0,9.522-3.306A5.241,5.241,0,0,0,13.818,0Z" transform="translate(19.507 36.015)"/></g></svg>