<svg xmlns="http://www.w3.org/2000/svg" xmlns:xlink="http://www.w3.org/1999/xlink" width="210.315" height="174.438" viewBox="0 0 210.315 174.438"><defs><style>.a{fill:none;stroke:#d3dcf4;stroke-width:20px;}.b{fill:#d3dcf4;}.c{fill:rgba(201,207,229,0.3);}.d{fill:url(#a);}.e{fill:#fafbfd;}.f{stroke:#5d83ff;stroke-width:18px;fill:url(#b);}.g{fill:#fe9f39;}.h{fill:#5d83ff;}.i{fill:#3a3a77;}.j{fill:url(#c);}.k{fill:rgba(160,179,248,0.3);}.l{fill:url(#d);}.m{fill:#fff;}</style><linearGradient id="a" x1="-11.883" y1="1.51" x2="-11.85" y2="1.51" gradientUnits="objectBoundingBox"><stop offset="0" stop-color="#eaeff5"/><stop offset="0.99" stop-color="#dee1f0"/></linearGradient><linearGradient id="b" x1="0.691" y1="0.786" x2="1.692" y2="0.786" gradientUnits="objectBoundingBox"><stop offset="0" stop-color="#ebf4ff"/><stop offset="1" stop-color="#ebe1ff"/></linearGradient><linearGradient id="c" x1="-1.038" y1="1.089" x2="-1.036" y2="1.089" gradientUnits="objectBoundingBox"><stop offset="0" stop-color="#ebf4ff" stop-opacity="0.639"/><stop offset="1" stop-color="#ebebff" stop-opacity="0.639"/></linearGradient><linearGradient id="d" x1="-2.449" y1="-0.255" x2="-2.433" y2="-0.255" gradientUnits="objectBoundingBox"><stop offset="0" stop-color="#548fff"/><stop offset="1" stop-color="#949fff"/></linearGradient></defs><g transform="translate(-204.5 -152.4)"><path class="a" d="M476.761,1237.39H295.295l-.44-.028-.8-.227-.369-.185-.653-.5-.5-.653-.185-.355-.213-.809-.043-.44.043-.44.213-.809.185-.355.5-.653.653-.5.369-.185.8-.227.44-.028H476.761l.44.028.412.085.4.142.369.185.639.5.5.653.185.355.227.809.028.44-.028.44-.227.809-.185.355-.5.653-.639.5-.369.185-.809.227Z" transform="translate(-75.161 -925.447)"/><path class="b" d="M1220.635,1301.384h10.635l6.73-.071,1.69.057,1.661.142,1.093.114,1.122.213.525.171.5.213.284.185.185.2.128.2.071.213v.483l-.085.383-.866,2.116-.156.582-.1.6v.639l.071.454.142.369.2.312.241.27.3.227.355.2.554.227.625.156,1.86.284,2.357.142,1.42-.014,5.666-.255.312-.043.27-.1.213-.142.3-.412.128-.5-.043-.5-.085-.241-.3-.383-.213-.128-.256-.085-.327-.028-5.112.227H1249.9l-2.258-.213-1.448-.44.355.412.071.128-.014.071.028-.724.1-.4.88-2.116.156-.54.085-.582v-.6l-.085-.525-.156-.469-.227-.426-.27-.383-.341-.355-.8-.568-.469-.227-.71-.3-.753-.227-1.505-.284-1.661-.17-1.676-.1-1.661-.028-16.911.028-.327.043-.256.085-.213.142-.17.184-.213.44-.057.511.142.483.128.213.17.185.213.142.256.085Z" transform="translate(-870.792 -983.62)"/><path class="b" d="M472.721,1309.556h36.918l.327-.043.256-.085.213-.142.17-.185.227-.44.043-.511-.142-.483-.3-.4-.213-.142-.256-.085-.327-.043H472.721l-.312.043-.27.085-.383.327-.213.44-.043.511.128.483.312.4.2.142.27.085Z" transform="translate(-229.088 -990.655)"/><g transform="translate(351.164 191.334)"><g transform="translate(0 50.947)"><path class="c" d="M1242.285,791.605l-4.657-2.684-.142-.114-.085-.27.142-.27.185-.128,4.416-2.556.469-.17.483-.014.241.043,4.842,2.769.142.114.071.128.014.142-.142.27-.185.128-4.43,2.556-.213.1-.483.1-.469-.057Z" transform="translate(-1237.4 -785.4)"/></g><path class="d" d="M1248.419,497.546V448.8H1237.4l.028,48.86.213.241,4.657,2.684.412.128h.241l.383-.057.327-.128,4.416-2.556.156-.1.185-.312Z" transform="translate(-1237.4 -445.648)"/><path class="e" d="M1242.285,432.819l-4.657-2.7-.142-.114-.071-.128-.014-.142.142-.256.185-.142,4.416-2.556.469-.17.483-.014.241.043,4.842,2.769.142.128.071.114.014.142-.142.27-.185.128-4.43,2.556-.327.142-.369.057-.256-.014Z" transform="translate(-1237.4 -426.6)"/></g><g transform="translate(234.688 176.525)"><path class="f" d="M443.795,444.8l.582-1.15.852-2,.511-1.349.469-1.463.767-2.868.483-2.613.17-1.349.114-1.42.071-1.477v-1.491l-.085-1.534-.17-1.59-.17-1.179-.54-2.414-.355-1.235-1.448-4.5-1.818-5.5-4.4-12.836-2.428-6.759-2.442-6.631-2.385-6.219-1.164-2.911-2.158-5.055L427.3,367.2l-.937-1.889-2.343-4.089-1.505-2.726-1.434-2.769-1.392-2.8-1.321-2.826-1.264-2.854L519.107,322.3l6.4,17.394,4.416,12.353,2.2,6.262,2.045,5.978,1.775,5.4,1.42,4.586.966,3.479,1.107,4.7,1.221,5.381,1.179,5.751.525,2.939.454,2.9.27,1.931.383,3.692.128,1.8.057,1.7v1.59l-.128,2.314-.3,1.974-.227.951-.27.852-.312.738-.355.639-.241.3-.383.341-.568.412-.809.469-1.051.54-1.349.611-1.661.682-2.613.98-3.181,1.093-3.38,1.079-3.848,1.164-8.292,2.385-4.416,1.193-9.343,2.456-14.4,3.607-18.2,4.331-14.725,3.365Z" transform="translate(-417.1 -322.3)"/></g><g transform="translate(351.618 155.822)"><path class="b" d="M1240.6,190.131l2.7-13.631,6.958,3.834L1240.6,190.7" transform="translate(-1240.6 -176.5)"/><path class="b" d="M1253.6,249.606l22.577-6.106,1.42,8.52Z" transform="translate(-1251.754 -233.987)"/></g><g transform="translate(204.5 230.084)"><path class="b" d="M218.671,711.743l-3,1.193-1.463.667-1.448.724-1.86,1.065-1.874,1.278-.937.781-.6.54-1.079,1.193-.483.653-.412.667-.355.71-.284.738-.213.781-.128.809-.043.724.043.682.1.682.17.667.227.639.3.6.355.582.412.511.483.483.525.426.582.369.653.312.667.227,1.392.312.71.085.966.028.951-.028.966-.085,1.448-.227,1.363-.284,1.477-.369,1.448-.44,1.463-.525,1.42-.582L224,727.66l1.321-.738.241-.27.057-.142-.014-.241-.085-.213-.142-.185-.2-.128h-.327l-2.286,1.193-1.093.483-1.122.426-2.258.738-1.278.355-2.215.469-1.8.17-.895.014-.895-.057-.88-.128-.611-.156-.568-.2-.525-.241-.483-.284-.44-.341-.4-.383-.355-.426-.3-.469-.241-.5-.2-.554-.128-.582-.085-.639v-.767l.1-.724.17-.682.256-.667.312-.639.383-.625.895-1.136.511-.525.824-.738.852-.667,1.846-1.221.966-.554,1.491-.767,1.519-.7,3.266-1.349.2-.256.057-.241-.028-.241-.1-.213-.156-.156-.3-.071Z" transform="translate(-204.5 -709.968)"/><path class="b" d="M344.014,812.223l.611.809.653.724.682.653.724.568.767.5.8.44.852.369.88.327.937.27.994.2.355-.028.142-.085.17-.17.1-.227.028-.227-.057-.213-.213-.213-.185-.071-.98-.2-.923-.256-.88-.327-.838-.383-.8-.454-.753-.54-.525-.44-.98-1.065-.454-.611-.27-.227-.4-.043-.227.085-.185.156-.114.2-.028.142Z" transform="translate(-324.106 -795.425)"/><path class="b" d="M387.671,787.811l-.057.909-.014.895.17,1.746.341,1.732.738,2.584.2.3.142.085.227.057.241-.028.213-.1.17-.156.057-.142-.014-.355-.71-2.471-.327-1.661-.17-1.661.071-1.931-.142-.27-.185-.114-.241-.028-.241.028-.213.128-.2.256Z" transform="translate(-361.601 -774.747)"/><path class="b" d="M302.081,702.524l1.661-.511,1.676-.454,2.272-.483,2.13-.27,1.008-.057h.994l1.008.085.653.1,1.278.355.994.44.469.284.866.667.724.809.3.469.227.483.17.5.1.5.043.511v.511l-.1.682-.2.653-.27.639-.312.554-.355.5-.4.469-.909.838-.5.355-.8.483-.852.412-.27.213-.057.142v.213l.085.227.156.185.213.128.327.043.2-.043.781-.383.767-.454.724-.54.682-.582.611-.653.54-.7.341-.554.3-.582.241-.611.185-.625.114-.639.043-.653-.043-.667-.114-.7-.17-.625-.227-.568-.27-.511-.312-.469-.5-.582-.554-.525-.625-.454-.667-.383-.7-.327-.753-.284-.767-.213-1.576-.284-.8-.071-1.519-.014-1.477.114-1.448.213-1.448.284-1.434.341-2.811.852-.17.085-.213.241-.057.241.028.241.1.213.156.156.3.085Z" transform="translate(-287.555 -699.5)"/><path class="b" d="M257.943,781.3l-.753.085-.327.114-.312.156-.284.227-.256.284-.185.3-.142.327-.071.327-.014.341.043.341.085.341.341.611.483.483.3.17.341.114.341.071h.341l.653-.1.625-.284.27-.227.213-.256.17-.3.185-.653-.014-.71-.085-.327-.312-.611-.227-.256-.27-.213-.54-.213-.3-.043-.44.014-.426.085-.511.256-.213.185-.312.44-.142.54v.284l.043.284.142.327.2.256.27.185.3.128.327.043.341-.043.312-.142.256-.2.185-.27.128-.3.057-.327-.043-.341.028.241-.114.44-.284.341-.312.128h.071l-.156-.014-.227-.114-.2-.2-.071-.227-.014.17.156-.369.256-.17-.128.028h.128l-.057-.028.213.1.156.17-.057-.043.043.1v-.085l.014.17-.185.341.028-.071-.2.128-.1.014.568-.043.312-.128.27-.2.2-.27.156-.412.014-.227-.043-.341-.142-.3-.2-.256-.256-.2-.3-.128Z" transform="translate(-248.344 -769.685)"/><path class="b" d="M307.243,757.214l-.738.071-.355.1-.312.156-.284.227-.241.3-.156.312-.156.682.043.7.1.327.17.4.227.327.3.284.341.227.369.156.412.085h.426l.4-.071.383-.156.341-.213.3-.284.256-.341.227-.639.028-.312-.071-.653-.241-.582-.185-.256-.483-.426-.284-.142-.341-.1-.639-.028-.625.114-.284.114-.5.355-.185.227-.142.256-.085.284-.028.312.028.369.128.312.2.256.256.2.312.128.426.043.327-.043.312-.114.256-.185.27-.355.071-.227.028-.312-.043-.341-.114-.312-.185-.27-.17-.156-.185-.1-.312-.085.895.895.028.327-.057.312-.1.2-.312.3-.156.043.156-.028-.156.028h.185l-.156-.014-.213-.142-.185-.3-.028-.2-.014.27.17-.369.1-.085.341-.014.213.2-.028-.071.043.114-.028-.128.028.156v-.185l-.014.142-.085.17-.27.256-.284.071.667-.057.312-.128.256-.2.213-.27.156-.4.014-.227-.057-.341-.128-.312-.2-.256-.256-.2-.3-.128-.341-.057Z" transform="translate(-290.73 -749.007)"/><path class="b" d="M351.307,738.053l-.454-.327-.241-.1-.383-.057h-.4l-.4.1-.383.142-.554.383-.412.511-.227.625-.057.44.014.4.1.4.142.256.4.454.27.185.653.241.7.057.682-.114.341-.156.312-.185.525-.483.341-.582.1-.327.043-.667-.057-.341-.128-.341-.2-.341-.284-.341-.3-.256-.355-.185-.27-.1-.6-.043-.327.071-.383.142-.341.2-.3.256-.227.312-.114.227-.071.54.028.284.085.256.341.426.213.156.27.114.525.057.327-.071.3-.128.27-.185.213-.256.142-.4.028-.241-.057-.327-.142-.312-.2-.27-.241-.213-.2-.1-.44-.057.156.028.923,1.179-.213.6-.2.27h-.114l.185-.014-.426-.071-.341-.128.043.043-.057-.114.014-.213.085-.17-.057.071.1-.085-.1.028.142-.028-.17.043.071-.014.085.028-.2-.057.071.028.412.682-.043.071.057-.028-.256.185.142-.057-.227.028-.185-.028-.327-.2.27.2.3.114.327.028.312-.043.3-.128.27-.2.2-.27.128-.3.043-.312-.028-.327-.114-.3Z" transform="translate(-327.452 -731.933)"/></g><g transform="translate(268.908 199.769)"><path class="g" d="M670.027,575.964l-.028.625-.085.582-.156.568-.2.54-.554,1.022-.724.88-.88.724-1.008.554-.554.2-.568.142-.582.1-.625.028-.611-.028-.6-.1-.568-.142-1.065-.454-.951-.639-.809-.809-.639-.951-.256-.525-.2-.54-.142-.568-.085-.582-.043-.625.043-.625.085-.582.142-.568.454-1.065.639-.951.809-.809.454-.341,1.022-.554.54-.2.568-.142.6-.1.611-.028.625.028.582.1.568.142.554.2,1.008.554.88.724.724.88.554,1.022.2.54.156.568.085.582Z" transform="translate(-658.1 -558.073)"/><path class="g" d="M729.027,722.964l-.028.625-.085.582-.156.568-.2.54-.554,1.022-.724.88-.88.724-1.008.554-.554.2-.568.142-.582.1-.625.028-.611-.028-.6-.1-.568-.142-.539-.2-.525-.256-.951-.639-.809-.809-.639-.951-.454-1.065-.142-.568-.085-.582-.043-.625.043-.625.085-.582.142-.568.454-1.065.639-.951.809-.809.454-.341,1.022-.554.539-.2.568-.142.6-.1.611-.028.625.028.582.1.568.142.554.2,1.008.554.88.724.724.88.554,1.022.2.54.156.568.085.582Z" transform="translate(-708.722 -684.2)"/><path class="g" d="M783.027,870.964l-.028.625-.085.582-.156.568-.2.54-.554,1.022-.724.88-.88.724-1.008.554-.554.2-.568.142-.582.1-.625.028-.611-.028-.6-.1-.568-.142-1.065-.454-.951-.639-.809-.809-.639-.951-.256-.525-.2-.54-.142-.568-.085-.582-.043-.625.043-.625.085-.582.142-.568.454-1.065.639-.951.809-.809.454-.341,1.022-.554.54-.2.568-.142.6-.1.611-.028.625.028.582.1.568.142.554.2,1.008.554.88.724.724.88.554,1.022.2.54.156.568.085.582Z" transform="translate(-755.055 -811.185)"/><g transform="translate(18.019 0)"><path class="h" d="M789.288,493.838l30.273-7.668.582-.114.568-.057h.554l1.093.17,1.022.369.937.554.809.724.682.88.483,1.022.17.568.17,1.136v.554l-.17,1.093-.369,1.022-.554.951-.724.809-.88.667-.5.27-.525.213-.554.185-30.287,7.668-.582.114-.568.057h-.554l-1.093-.17-1.022-.369-.937-.554-.809-.724-.667-.88-.27-.5-.227-.525-.17-.568L785,499.6v-.554l.17-1.108.369-1.022.554-.937.724-.809.895-.667.483-.27.525-.213Z" transform="translate(-785 -486)"/></g><path class="h" d="M867.413,661.189l-21.342,5.538-1.136.156h-.568l-1.093-.17-1.022-.369-.937-.554-.809-.724-.355-.426-.312-.454-.27-.483-.213-.525-.185-.568-.114-.582-.057-.568.014-.554.17-1.093.369-1.022.554-.937.724-.809.426-.355.937-.582.525-.213.568-.185,21.327-5.538.582-.114.568-.057.554.014,1.093.17,1.022.355.937.568.809.724.355.426.582.937.227.525.17.568.17,1.136v.554l-.17,1.093-.369,1.022-.554.937-.724.809-.88.682-1.022.483Z" transform="translate(-813.314 -626.713)"/><g transform="translate(33.212 41.888)"><path class="h" d="M896.288,788.838l30.273-7.668.582-.114.568-.057h.554l1.093.17,1.022.369.937.554.809.724.682.88.255.5.227.525.17.554.114.582.057.568v.554l-.17,1.093-.369,1.022-.554.951-.724.809-.88.667-.5.27-.511.213-.568.17-30.287,7.682-.582.114-.568.057h-.554l-1.093-.17-1.022-.369-.937-.554-.809-.724-.667-.88-.483-1.022-.185-.568-.114-.568L892,794.6v-.568l.17-1.093.369-1.022.568-.937.724-.809.88-.667,1.008-.483Z" transform="translate(-892 -781)"/></g></g><path class="h" d="M435.39,344.865l97.066-24.352.3-.114.227-.156.17-.185.114-.213.1-.5-.085-.5-.27-.44-.4-.3-.241-.085L532.1,318l-.327.043-97.066,24.352-.3.114-.227.156-.17.185-.114.213-.1.5.1.5.256.44.4.3.241.085.284.028Z" transform="translate(-196.741 -142.086)"/><path class="h" d="M421.09,176.894,516.737,155l.3-.114.241-.142.156-.185.2-.44.028-.256-.1-.5-.114-.227-.327-.383-.469-.227-.27-.028-.327.028-95.646,21.9-.3.114-.227.142-.17.185-.128.213-.085.483.085.5.256.44.412.312.241.085.284.028Z" transform="translate(-184.472 -0.086)"/><path class="h" d="M341.818,313.183l.611-.554.667-.5.7-.44.724-.369.753-.284.781-.227.6-.1,1.207-.057.611.043.639.128.625.17.582.227.554.284.71.44.653.511.6.6.554.639.483.7.44.738.724,1.6.525,1.69.341,1.746.17,1.761v1.761l-.17,1.761-.355,1.718-.256.852-.312.824-.369.8-.426.767-.44.625-.483.582-.525.525-.582.469-.6.426-.653.369-.667.312-1.392.5-.682.156-.7.1-.682.028-.951-.057-.838-.185-.568-.185-.327-.128-.7-.369-1.051-.71-1.093-1.051-.554-.682-.994-1.59-.412-.852-.355-.866-.3-.88-.256-.937-.2-.994-.156-1.093-.071-1.079v-1.093l.085-1.079.17-1.079.227-1.065.256-.781.284-.753.341-.71.383-.682.426-.639.5-.611.568-.6.781-.738.17-.4.043-.327-.057-.341-.128-.312-.185-.256-.2-.156-.383-.185-.327-.028-.312.043-.312.128-.284.2-.653.6-.611.639-.554.682-.5.71-.454.753-.738,1.576-.3.838-.327,1.122-.241,1.15-.156,1.164-.071,1.179.014,1.179.085,1.164.142,1.108.227,1.108.284,1.122.341,1.108.426,1.065.5,1.037.866,1.477,1.051,1.349.582.611.625.568.682.525.724.483.667.369.682.3.7.256.724.185.724.128,1.477.085.753-.028.994-.114.98-.213.951-.3.937-.383.88-.44.852-.54.611-.44,1.093-1.008.483-.568.568-.738.5-.781.44-.809.4-.838.625-1.761.426-1.832.17-1.25.085-1.264.014-1.278-.085-1.264-.142-1.25-.227-1.235-.3-1.221-.369-1.179-.426-1.122-.469-.98-.525-.937-.6-.88-1.022-1.221-1.179-1.051-.653-.469-.682-.4-.724-.355-.781-.3-.724-.213-.724-.142-.738-.085-.738-.028-.753.028-1.462.227-.724.2-1.392.54-1.306.724-1.321.994-.611.568-.2.241-.128.256-.043.241v.256l.156.469.327.383.44.256.511.071.241-.057.256-.114Z" transform="translate(-112.313 -133.592)"/><path class="h" d="M1093.878,154.97l.611.071,1.207.327.312.114.852.44.923.625.611.54.611.653.568.71.511.753.454.8.383.809.327.809.313.937.255.937.2.966.128.966.071.98.014.98-.057.88-.1.88-.156.88-.227.852-.284.824-.355.767-.327.6-.4.554-.44.511-.682.611-1.207.71-.909.284-.3.128-.227.142-.17.2-.185.454v.511l.17.469.341.383.213.128.241.085.27.014.327-.043.838-.27.753-.341.71-.4.639-.454.611-.511.554-.568.5-.611.454-.653.4-.7.667-1.463.256-.781.284-1.051.185-1.079.128-1.093.043-1.108-.028-1.136-.1-1.136-.17-1.136-.241-1.122-.312-1.108-.383-1.079-.469-1.037-.525-1.022-.6-.966-.667-.909-.738-.852-.6-.6-.653-.54-.682-.483-.724-.426-.752-.369-.781-.3-.809-.241-.823-.17-.852-.1-.426.057-.2.1-.27.213-.2.27-.128.312-.057.327.085.454.3.44.256.185.312.142.327.057Z" transform="translate(-761.996)"/><path class="h" d="M1147.121,417.71l.54-.185.5-.213.454-.27.4-.312.5-.469.426-.54.383-.6.327-.639.511-1.377.284-1.065.2-1.079.241-2.059.114-1.974.028-1.974-.071-1.988-.312-3.962-.241-1.974-.923-5.864-.71-3.891-.8-3.891-.866-3.876-1.931-7.7-1.051-3.82-1.42-4.97-1.505-4.956-1.576-4.927-1.647-4.9-3.1-8.576-2.868-7.369-1.519-3.635-1.576-3.621-1.647-3.592-1.108-2.314-.17-.284-.2-.185-.213-.114-.227-.057-.5.028-.44.213-.213.17-.284.412-.085.256-.028.256.043.284.1.3,1.619,3.379,1.534,3.408,1.477,3.45,2.8,6.943,3.039,8.236,1.661,4.771,1.59,4.785,1.519,4.828,1.448,4.842,1.093,3.82,2.031,7.7.937,3.876.866,3.876,1.363,6.929.809,5.027.469,4.047.142,2.016.085,2.059.014,2.073-.057,1.661-.142,1.661-.355,1.874-.355,1.193-.142.4-.653,1.136.071-.1-.341.369-.284.227.17-.114-.369.241-.284.128.17-.043-.724.256-.227.156-.17.185-.2.454-.014.256.085.5.256.44.412.3.241.085.27.014Z" transform="translate(-789.624 -142.515)"/><path class="h" d="M413.87,495.331l1.7,3.408,3.308,6.858,4.274,9.272,2.556,5.793,1.661,3.876,3.209,7.81,1.7,4.345,1.661,4.373,1.59,4.4,1.136,3.323,1.093,3.337,1.037,3.351.98,3.365.824,3.039,1.207,5.1.8,4.1.312,1.974.227,1.874.241,2.968.043,1.647-.071,2.74-.128,1.349-.27,1.463-.227.951-.483,1.434-.4.838-.781,1.25L440,590.651l-.724.469-.753.412-.909.284-1.037.227-.8.114-.3.128-.256.2-.3.426-.085.454.043.327.128.312.2.27.27.213.412.156,1.065-.1.824-.156.824-.227.781-.27.753-.355.724-.412.682-.469.639-.554.6-.625.54-.7.483-.724.412-.753.369-.8.582-1.633.4-1.7.327-2.527.085-1.661.014-1.676-.057-1.676-.128-1.675-.44-3.692-.682-4.018-.639-3-.7-2.982-.8-3.039-.852-3.01-.909-3.01-1.945-5.964-2.641-7.4-1.661-4.388-1.661-4.189-3.436-8.321-2.684-6.205-4.572-10.081-3.734-7.824-2.385-4.8-.185-.27-.2-.185-.213-.114-.241-.071-.483.043-.454.213-.369.369-.2.469-.028.256.043.27.114.312Z" transform="translate(-179.495 -292.581)"/><path class="h" d="M687.845,996.2l-.028-.327.043-.312.114-.284.17-.27.185-.156-.44.27-1.661.582-3.024.98-11.629,3.422-8.619,2.428-24.977,6.858-20.589,5.822-7.44,1.974-3.734.923-3.749.866-3.777.781-3.777.724-4.288.71-.4.17-.17.142-.185.284-.128.327-.043.327.043.327.2.412.4.341.3.114.327.043.341-.014,3.891-.653,3.876-.724,3.862-.809,3.834-.88,7.653-1.931,5.708-1.548,16.4-4.643,25.914-7.128,8.832-2.485,12.027-3.536,4.175-1.349,1.746-.667.369-.2.327-.241.17-.185.114-.213.142-.454v-.241l-.1-.469-.256-.355-.27-.185-.327-.128-.327-.043-.327.043-.412.2-.355.4-.114.3-.043.327Z" transform="translate(-330.504 -722.614)"/><path class="h" d="M483.221,990.916l1.59.071h1.6l1.619-.071,1.619-.142,1.6-.213,1.6-.3,1.193-.284,2.314-.7,2.243-.909,1.079-.525,1.051-.582,1.022-.639.241-.213.17-.213.1-.241.057-.256-.043-.511-.085-.241-.3-.412-.2-.156-.44-.17-.256-.014-.256.071-2.215,1.292-1.008.483-1.037.454-1.406.511-1.434.426-1.477.341-1.477.284-1.491.185-1.505.128-1.505.057H484.7l-1.477-.071-.312.014-.27.071-.2.128-.312.369-.128.483.043.511.213.469.185.2.213.142.256.114Z" transform="translate(-238.097 -713.691)"/><path class="h" d="M448.207,1017.783l-.966,1.079-.895,1.136-.838,1.221-1.093,1.9-.88,2-.369,1.022-.3,1.051-.213,1.037-.17,1.065-.085,1.065v1.065l.071,1.065.156,1.051.185.838.256.824.312.824.369.823.454.809.469.738.525.7.554.639.582.6,1.306,1.065,1.42.895,1.008.511,1.037.426,1.079.369,1.108.3,1.108.227,1.136.17,1.136.1,1.122.028,1.122-.028,1.363-.114,1.377-.2,1.817-.426.88-.3.852-.355.809-.426.781-.5.256-.227.2-.255.128-.3.043-.312-.071-.426-.1-.227-.2-.256-.27-.2-.312-.128-.341-.057-.426.071-1.448.852-.667.284-.682.255-.937.256-.951.2-.966.142-1.207.1-1.193.014-1.193-.057-1.193-.142-1.178-.213-1.164-.3-1.491-.525-.71-.341-.7-.369-1.306-.88-.6-.511-.554-.554-.511-.61-.44-.625-.724-1.292-.284-.7-.3-.951-.227-.966-.128-.98-.043-.994.043-1.008.128-.994.256-1.15.341-1.136.412-1.108.5-1.065.568-1.037.639-1.008.682-.966.738-.923.8-.88.185-.256.128-.256.043-.241-.071-.511-.256-.44-.383-.327-.227-.1-.5-.057-.241.057-.241.114Z" transform="translate(-204.12 -742.177)"/><g transform="translate(362.026 267.272)"><path class="h" d="M1326.154,964.141l17.337,23.23.383.582.327.611.255.611.185.639.128.653.057.653v.653l-.057.653-.128.639-.185.625-.241.6-.312.6-.369.554-.412.525-.483.483-.54.454-.6.383-.6.327-.625.255-.625.185-.653.128-.653.057h-.653l-.653-.057-.639-.128-.625-.185-.611-.241-.582-.312-.554-.355-.525-.426-.483-.483-.454-.54-17.323-23.23-.4-.6-.312-.6-.255-.625-.2-.625-.114-.653-.071-.653v-.653l.071-.653.114-.639.2-.625.241-.611.3-.582.369-.568.412-.511.483-.483.554-.454.582-.4.6-.312.625-.255.639-.2.653-.114.653-.071h.639l.653.071.653.128.611.185.611.241.6.3.554.369.511.412.5.483Z" transform="translate(-1313.9 -961.4)"/></g><g transform="translate(354.927 261.053)"><path class="g" d="M1283.935,921.462l.312.639.256.653.2.682.114.682.057.71-.014.71-.071.71-.142.724-.44,1.42-.312.71-.781,1.363-1.008,1.292-1.207,1.193-.667.554-1.505.994-1.619.8-.81.3-1.633.44-1.619.227-1.59-.014-.753-.085-.738-.142-.71-.185-.7-.256-.653-.3-.625-.341-.582-.4-.54-.454-.483-.511-.44-.54-.383-.611-.327-.639-.256-.667-.185-.667-.128-.7-.057-.7.014-.71.071-.71.142-.738.44-1.406.312-.71.781-1.363,1.008-1.292,1.207-1.193.667-.554,1.505-.994,1.619-.8.809-.312,1.633-.44,1.619-.213.8-.028.8.043.752.085,1.448.327.7.256.667.3.611.341.582.4.54.454.483.5.44.554Z" transform="translate(-1263.9 -917.6)"/></g><path class="h" d="M981.4,564l-1.534.043-1.505.1-1.477.17-1.463.241-1.42.3-1.434.369-1.392.426-1.349.483-1.335.554-1.292.6-1.278.667-1.235.71-1.193.767-1.164.809-1.136.866-1.079.909-1.051.966-.994.994L957.108,575,956.2,576.1l-.866,1.122-.809,1.164-.767,1.207-.71,1.235-.667,1.278-.6,1.292-.54,1.335-.5,1.349-.426,1.392-.369,1.42-.3,1.434-.241,1.463-.17,1.477-.1,1.505L949.1,596.3l.043,1.534.1,1.505.17,1.477.241,1.462.3,1.434.369,1.42.426,1.392.5,1.349.54,1.335.6,1.292.667,1.278.71,1.235.767,1.207.809,1.164.866,1.122.909,1.093.966,1.037.994.994,1.051.966,1.079.909,1.136.866,1.164.809,1.193.767,1.235.71,1.278.667,1.292.6,1.335.554,1.349.483,1.392.426,1.434.369,1.42.3,1.463.241,1.477.17,1.505.1,1.534.043,1.533-.043,1.505-.1,1.491-.17,1.448-.241,1.434-.3,1.42-.369,1.391-.426,1.363-.483,1.321-.554,1.306-.6,1.264-.667,1.235-.71,1.207-.767,1.164-.809,1.122-.866,1.093-.909,1.037-.966,1.008-.994.951-1.037.909-1.093.866-1.122.824-1.164.753-1.207.71-1.235.667-1.278.6-1.292.554-1.335.483-1.349.426-1.392.369-1.42.3-1.434.241-1.462.17-1.477.114-1.505.028-1.534-.028-1.534-.114-1.505-.17-1.477-.241-1.463-.3-1.434-.369-1.42-.426-1.392-.483-1.349-.554-1.335-.6-1.292-.667-1.278-.71-1.235-.753-1.207-.824-1.164-.866-1.122L1005.7,575l-.951-1.036-1.008-.994-1.037-.966-1.093-.909-1.122-.866-1.164-.809-1.193-.767-1.25-.71-1.264-.667-1.306-.6-1.321-.554-1.363-.483-1.391-.426-1.42-.369-1.434-.3-1.448-.241-1.477-.17-1.519-.1Zm0,56.03-1.321-.043-1.278-.1-1.264-.17-1.235-.241-1.207-.3-1.207-.355-1.164-.426-1.122-.483-1.108-.54-1.065-.582-1.051-.653-.994-.7-.951-.738-.923-.781-.88-.838-.838-.895-.8-.909-.738-.966-.7-.994-.653-1.051-.582-1.065-.54-1.093-.483-1.136-.412-1.164-.369-1.207-.3-1.207-.241-1.235-.17-1.264-.1-1.278-.043-1.32.043-1.321.1-1.278.17-1.264.241-1.235.3-1.207.369-1.207.412-1.164.483-1.136.54-1.093.582-1.065.653-1.051.7-.994.738-.966.8-.909.838-.895.88-.838.923-.781.951-.738.994-.7,1.051-.653,1.065-.582,1.108-.539,1.122-.483,1.164-.426,1.207-.355,1.207-.3,1.235-.241,1.264-.17,1.278-.1,1.321-.043,1.321.043,1.292.1,1.25.17,1.235.241,1.207.3,1.207.355,1.164.426,1.136.483,1.093.539,1.079.582,1.037.653.994.7.966.738.923.781.88.838.838.895.781.909.753.966.682.994.653,1.051.6,1.065.525,1.093.483,1.136.426,1.164.369,1.207.3,1.207.227,1.235.17,1.264.114,1.278.028,1.321-.028,1.32-.114,1.278-.17,1.264-.227,1.235-.3,1.207-.369,1.207-.426,1.164-.483,1.136-.525,1.093-.6,1.065-.653,1.051-.682.994-.753.966-.781.909-.838.895-.88.838-.923.781-.966.738-.994.7-1.037.653-1.079.582-1.093.54-1.136.483-1.164.426-1.207.355-1.207.3-1.235.241-1.25.17-1.292.1Z" transform="translate(-638.872 -353.156)"/><path class="i" d="M975.19,563l-1.519.043-1.505.1-1.463.17-1.448.241-1.42.3-1.42.369-1.377.412-1.349.483-1.32.554-1.292.6-1.264.653-1.221.71-1.193.753-1.164.809-1.108.852-1.093.909L953,571.9l-.98.994-.951,1.037-.909,1.079-.866,1.122-.809,1.164-.752,1.179-.71,1.235-.653,1.264-.6,1.292-.54,1.321-.483,1.349-.426,1.377-.369,1.42-.3,1.42-.241,1.448-.17,1.463-.1,1.505-.043,1.519.043,1.519.1,1.505.17,1.463.241,1.448.3,1.42.369,1.42.426,1.377.483,1.349.54,1.321.6,1.292.653,1.264.71,1.235.752,1.179.809,1.164.866,1.122.909,1.079.951,1.036.98.994,1.037.951,1.093.909,1.108.852,1.164.809,1.193.753,1.221.71,1.264.653,1.292.6,1.32.554,1.349.483,1.377.412,1.42.369,1.42.3,1.448.241,1.463.17,1.505.1,1.519.043,1.533-.043,1.491-.1,1.477-.17,1.434-.241,1.42-.3,1.42-.369,1.377-.412,1.349-.483,1.321-.554,1.292-.6,1.264-.653,1.235-.71L993,621.8l1.15-.809,1.122-.852,1.079-.909,1.036-.951.994-.994.951-1.036.909-1.079.852-1.122.809-1.164.753-1.179.71-1.235.653-1.264.611-1.292.54-1.321.483-1.349.426-1.377.369-1.42.3-1.42.227-1.448.17-1.463.114-1.505.028-1.519-.028-1.519-.114-1.505-.17-1.463-.227-1.448-.3-1.42-.369-1.42-.426-1.377-.483-1.349-.54-1.321-.611-1.292-.653-1.264-.71-1.235-.753-1.179-.809-1.164-.852-1.122-.909-1.079-.951-1.037-.994-.994-1.036-.951-1.079-.909-1.122-.852-1.15-.809-1.193-.753-1.235-.71-1.264-.653-1.292-.6-1.321-.554-1.349-.483-1.377-.412-1.42-.369-1.42-.3-1.434-.241-1.477-.17-1.491-.1Zm0,55.661-1.306-.043-1.278-.1-1.25-.17-1.221-.227-1.207-.3-1.193-.369-1.164-.412-1.122-.483-1.093-.525-1.065-.6-1.022-.639-.994-.682-.966-.738-.909-.8-.88-.824-.824-.88-.781-.909-.738-.951-.7-.994-.639-1.037-.6-1.065-.525-1.093-.469-1.122-.426-1.164-.369-1.193-.284-1.193-.241-1.235-.17-1.25-.1-1.278-.043-1.306.043-1.306.1-1.278.17-1.25.241-1.235.284-1.193.369-1.193.426-1.164.469-1.122.525-1.093.6-1.065.639-1.037.7-.994.738-.951.781-.909.824-.88.88-.824.909-.8.966-.738.994-.682,1.022-.639,1.065-.6,1.093-.525,1.122-.483,1.164-.412,1.193-.369,1.207-.3,1.221-.227,1.25-.17,1.278-.1,1.306-.043,1.306.043,1.278.1,1.264.17,1.221.227,1.193.3,1.193.369,1.164.412,1.122.483,1.093.525,1.065.6,1.037.639.994.682.951.738.909.8.88.824.838.88.781.909.738.951.682.994.653,1.037.582,1.065.525,1.093.483,1.122.412,1.164.369,1.193.3,1.193.227,1.235.17,1.25.114,1.278.028,1.306-.028,1.306-.114,1.278-.17,1.25-.227,1.235-.3,1.193-.369,1.193-.412,1.164-.483,1.122-.525,1.093-.582,1.065-.653,1.037-.682.994-.738.951-.781.909-.838.88-.88.824-.909.8-.951.738-.994.682-1.037.639-1.065.6-1.093.525-1.122.483-1.164.412-1.193.369-1.193.3-1.221.227-1.264.17-1.278.1Z" transform="translate(-633.724 -352.298)"/><g transform="translate(315.907 217.234)"><path class="j" d="M1040.217,634.559l-.043,1.42-.114,1.392-.17,1.349-.256,1.335-.327,1.306-.4,1.292-.454,1.25-.511,1.221-.582,1.179-.639,1.15-.7,1.122-.738,1.079-.809,1.037-.838.994-.909.951-.951.895-.994.852-1.022.809-1.079.738-1.122.7-1.15.639-1.193.582-1.221.511-1.25.454-1.292.4-1.306.312-1.335.256-1.349.185-1.391.114-1.42.043-1.42-.043-1.377-.114-1.363-.185-1.335-.256-1.292-.312-1.292-.4-1.264-.454-1.221-.511-1.178-.582-1.15-.639-1.122-.7-1.079-.738-1.036-.809-.994-.852-.951-.895-.895-.951-.852-.994-.8-1.037-.752-1.079-.7-1.122-.639-1.15-.568-1.179-.525-1.221-.454-1.25-.4-1.292-.312-1.306-.255-1.335-.185-1.349-.114-1.392-.043-1.42.043-1.42.114-1.391.185-1.349.255-1.335.313-1.306.4-1.292.454-1.25.525-1.221.568-1.179.639-1.15.7-1.122.752-1.079.8-1.036.852-.994.895-.951.951-.895.994-.852,1.036-.809,1.079-.738,1.122-.7,1.15-.639,1.178-.582,1.221-.511,1.264-.454,1.292-.4,1.292-.312,1.335-.256,1.363-.185,1.377-.114,1.42-.043,1.42.043,1.391.114,1.349.185,1.335.256,1.306.312,1.292.4,1.25.454,1.221.511,1.193.582,1.15.639,1.122.7,1.079.738,1.022.809.994.852.951.895.909.951.838.994.809,1.036.738,1.079.7,1.122.639,1.15.582,1.179.511,1.221.454,1.25.4,1.292.327,1.306.256,1.335.17,1.349.114,1.391Z" transform="translate(-989.1 -609)"/></g><g transform="translate(273.523 273.534)"><g transform="translate(0 0)"><g transform="translate(0 24.735)"><path class="k" d="M700.752,1192.579l-9.656-5.566-.383-.327-.114-.355.028-.2.213-.383.454-.369,9.173-5.282.44-.2.511-.142.511-.057.823.071.554.213,9.655,5.566.369.327.114.369-.014.185-.213.383-.469.369-9.173,5.282-.44.2-.5.142-.525.057-.824-.071Z" transform="translate(-690.6 -1179.7)"/></g><path class="l" d="M713.447,1072.729V1051.7H690.6v21.043l.114.369.142.17.241.17,9.656,5.566.54.2.824.085.525-.071.5-.128.454-.213,9.173-5.282.284-.2.2-.213.142-.227.057-.213Z" transform="translate(-690.6 -1045.14)"/><path class="m" d="M700.752,1018.393l-9.656-5.566-.383-.341-.085-.17-.028-.185.028-.2.213-.383.454-.355,9.173-5.3.44-.213.511-.128.511-.057.5.014.625.142,9.911,5.68.369.341.085.17.028.185-.014.2-.213.383-.454.369-9.187,5.282-.44.213-.5.128-.525.071-.824-.071Z" transform="translate(-690.6 -1005.5)"/></g></g></g></svg>