<svg xmlns="http://www.w3.org/2000/svg" width="58" height="58" viewBox="0 0 58 58"><defs><style>.a{fill:#d3d7de;}.b{fill:#9498a4;}.c{fill:#cdd3df;}</style></defs><path class="a" d="M58,29A29,29,0,1,1,29,0,29,29,0,0,1,58,29" transform="translate(0 0)"/><path class="b" d="M28.883,8.251a4.125,4.125,0,0,1,0-8.251h.062a4.125,4.125,0,0,1-.059,8.25Zm-24.756,0H4.065A4.126,4.126,0,0,1,4.126,0h.06a4.126,4.126,0,0,1-.059,8.251Z" transform="translate(12.601 20.789)"/><path class="c" d="M11.916,3.3C11.255,1.268,8.9.033,6.07,0,3.163-.033.7,1.225.031,3.32c-.165.519.357,1.017,1.046,1.017h9.8C11.58,4.337,12.089,3.824,11.916,3.3Z" transform="translate(23.024 41.695)"/><path class="c" d="M21.155,19.628A34.357,34.357,0,0,1,0,12.374,28.957,28.957,0,0,0,23.635,24.58,29.007,29.007,0,0,0,52.3,0,34.516,34.516,0,0,1,21.155,19.628" transform="translate(5.701 33.249)"/><rect class="b" width="23" height="4" rx="2" transform="translate(17.795 38.167)"/></svg>