<svg xmlns="http://www.w3.org/2000/svg" xmlns:xlink="http://www.w3.org/1999/xlink" width="78" height="78" viewBox="0 0 78 78"><defs><style>.a{fill:url(#a);}.b,.c{fill:#fff;}.b{opacity:0.66;}</style><linearGradient id="a" x1="0.089" y1="0.25" x2="0.589" y2="1.073" gradientUnits="objectBoundingBox"><stop offset="0" stop-color="#ffca3f"/><stop offset="1" stop-color="#fb0"/></linearGradient></defs><g transform="translate(0.417 149.182)"><path class="a" d="M0,26.591A26.591,26.591,0,0,1,26.591,0H51.409A26.591,26.591,0,0,1,78,26.591V51.409A26.591,26.591,0,0,1,51.409,78H26.591A26.591,26.591,0,0,1,0,51.409Z" transform="translate(-0.417 -149.182)"/><g transform="translate(19.843 -129.764)"><path class="b" d="M56.6,111.826a2.859,2.859,0,0,0-3.47-1.335l-8.407,2.978a6.178,6.178,0,0,1-2.217,2.749,4.827,4.827,0,0,1-2.657.759,7.173,7.173,0,0,1-2.654-.558l-.087-.038c-2.742-1.314-5.034-2.512-5.058-2.524a1.408,1.408,0,0,1,1.3-2.5c.021.012,2.248,1.175,4.923,2.458,1.711.669,2.453.189,2.7.033a4.2,4.2,0,0,0,1.454-2.3,5.362,5.362,0,0,0-1.208-1.09c-1.326-.9-4.758-2.869-7.75-4.554a9.23,9.23,0,0,0-9.927.56L19.761,109.2a1.212,1.212,0,0,0-.5.981v8.958a1.21,1.21,0,0,0,1.425,1.191l3.38-.612a5.947,5.947,0,0,1,2.921.2l9.468,3.12a11.006,11.006,0,0,0,9.553-1.3l9.617-6.152a2.858,2.858,0,0,0,.976-3.767Z" transform="translate(-19.26 -83.984)"/><path class="c" d="M59.292,16.97A15.761,15.761,0,0,0,43.828,35.781c1.673-.437,5.512-1.092,8.906.86,4.488,2.583,11.38,7.282,11.38,7.282l8.579-2.888a15.763,15.763,0,0,0-13.4-24.065Zm5.133,13.446a1.3,1.3,0,0,1,0,2.6H60.663V35.54a1.3,1.3,0,1,1-2.6,0V33.016H54.3a1.3,1.3,0,1,1,0-2.6h3.763V28.265H54.3a1.3,1.3,0,0,1,0-2.6h2.295L54,23.132a1.3,1.3,0,0,1,1.818-1.86l3.54,3.462,3.545-3.462a1.3,1.3,0,0,1,1.818,1.86L62.13,25.665h2.3a1.3,1.3,0,0,1,0,2.6H60.665v2.151Z" transform="translate(-37.794 -16.97)"/></g></g></svg>