<svg xmlns="http://www.w3.org/2000/svg" xmlns:xlink="http://www.w3.org/1999/xlink" width="78" height="77.011" viewBox="0 0 78 77.011"><defs><style>.a{fill:url(#a);}.b,.c{fill:#fff;}.b{opacity:0.66;}.d{fill:#64d2b4;}</style><linearGradient id="a" x1="-0.162" y1="0.081" x2="0" y2="1.081" gradientUnits="objectBoundingBox"><stop offset="0" stop-color="#75ecc8"/><stop offset="1" stop-color="#54baa1"/></linearGradient></defs><g transform="translate(0)"><path class="a" d="M0,26.552A26.572,26.572,0,0,1,26.591,0H51.409A26.572,26.572,0,0,1,78,26.552V50.459A26.572,26.572,0,0,1,51.409,77.011H26.591A26.572,26.572,0,0,1,0,50.459Z"/><g transform="translate(18.632 17.215)"><path class="b" d="M670.822,152.627v6.843h1.63l4.022,3.557v1.442h3.261V152.627Z" transform="translate(-643.32 -150.251)"/><path class="c" d="M88.589,100.4H84.695L66.253,117.8v4.022h3.8v16.77h33.139v-16.77h3.8v-3.647L88.589,100.4Z" transform="translate(-66.253 -100.403)"/><path class="d" d="M362.115,394.652v-3.261h-4.6l3.047-3.515-2.464-2.136-3.668,4.234-3.906-4.088-2.357,2.255,3.1,3.249h-4.239v3.261h5.911V397.2h-5.911v3.261h5.911v3.613h3.261v-3.613h5.909V397.2h-5.909v-2.548Z" transform="translate(-334.261 -372.76)"/></g></g></svg>