<svg xmlns="http://www.w3.org/2000/svg" xmlns:xlink="http://www.w3.org/1999/xlink" width="78" height="78" viewBox="0 0 78 78"><defs><style>.a{fill:url(#a);}.b,.c{fill:#fff;}.b{opacity:0.66;}.d{fill:#06c79f;}</style><linearGradient id="a" x1="0.193" y1="0.159" x2="0.723" y2="1" gradientUnits="objectBoundingBox"><stop offset="0" stop-color="#06eec4"/><stop offset="1" stop-color="#06b791"/></linearGradient></defs><g transform="translate(0 113.685)"><path class="a" d="M0,26.591A26.591,26.591,0,0,1,26.591,0H51.409A26.591,26.591,0,0,1,78,26.591V51.409A26.591,26.591,0,0,1,51.409,78H26.591A26.591,26.591,0,0,1,0,51.409Z" transform="translate(0 -113.685)"/><g transform="translate(19.567 -97.185)"><path class="b" d="M144.333,94.054m3.545,0h31.775q3.545,0,3.545,3.545v34.656q0,3.545-3.545,3.545H147.878q-3.545,0-3.545-3.545V97.6Q144.333,94.054,147.878,94.054Z" transform="translate(-144.333 -94.054)"/><path class="c" d="M169.4,147.87,147.846,145.1a4.027,4.027,0,0,1-3.513-3.995V106.115a2.723,2.723,0,0,1,3.17-2.682l22.939,3.859a3.559,3.559,0,0,1,2.976,3.51v33.537a3.562,3.562,0,0,1-4.019,3.532Z" transform="translate(-144.333 -102.9)"/><path class="d" d="M515.612,441.547a2.178,2.178,0,0,1-2.178-2.178v-8.441a2.178,2.178,0,1,1,4.357,0v8.455a2.178,2.178,0,0,1-2.178,2.165Z" transform="translate(-493.804 -410.949)"/></g></g></svg>