<svg xmlns="http://www.w3.org/2000/svg" xmlns:xlink="http://www.w3.org/1999/xlink" width="78" height="78.001" viewBox="0 0 78 78.001"><defs><style>.a{fill:url(#a);}.b,.c{fill:#fff;}.b{opacity:0.66;}</style><linearGradient id="a" x1="0.5" x2="0.5" y2="1" gradientUnits="objectBoundingBox"><stop offset="0" stop-color="#6fd1f9"/><stop offset="1" stop-color="#407dea"/></linearGradient></defs><g transform="translate(0)"><path class="a" d="M34.813,78c-9.819,0-15.083-1.358-19.85-3.907A26.578,26.578,0,0,1,3.907,63.037C1.357,58.27,0,53.005,0,43.188V34.813C0,25,1.357,19.73,3.907,14.964A26.58,26.58,0,0,1,14.963,3.907C19.73,1.358,24.995,0,34.813,0h8.374C53,0,58.27,1.358,63.036,3.907A26.577,26.577,0,0,1,74.093,14.964C76.643,19.73,78,25,78,34.813v8.375c0,9.818-1.357,15.083-3.907,19.849A26.576,26.576,0,0,1,63.036,74.093C58.27,76.643,53,78,43.187,78Z"/><path class="b" d="M456.964,333.133a2,2,0,0,1-2-2v-11.49a3.3,3.3,0,0,1,3.3-3.3h18.314V306.338H470.3a2,2,0,0,1,0-4h6.98a3.306,3.306,0,0,1,3.3,3.3v11.41a3.3,3.3,0,0,1-3.3,3.3H458.965v10.786a2,2,0,0,1-2,2ZM477.279,306.358Z" transform="translate(-420.594 -278.912)"/><path class="c" d="M257.024,223.488m2.681,0H289.29a2.37,2.37,0,0,1,2.682,2.681v10.986a2.37,2.37,0,0,1-2.682,2.682H259.705a2.37,2.37,0,0,1-2.681-2.682V226.169A2.37,2.37,0,0,1,259.705,223.488Z" transform="translate(-236.366 -204.367)"/><path class="c" d="M412.928,585.574m1.937,0h6.7a1.712,1.712,0,0,1,1.937,1.937v13.6a1.712,1.712,0,0,1-1.937,1.937h-6.7a1.712,1.712,0,0,1-1.937-1.937v-13.6A1.712,1.712,0,0,1,414.865,585.574Z" transform="translate(-380.147 -542.211)"/></g></svg>