<svg xmlns="http://www.w3.org/2000/svg" xmlns:xlink="http://www.w3.org/1999/xlink" width="78" height="78" viewBox="0 0 78 78"><defs><style>.a{fill:url(#a);}.b{fill:rgba(255,255,255,0.4);}.c{fill:#fff;}</style><linearGradient id="a" x1="0.5" x2="0.5" y2="1" gradientUnits="objectBoundingBox"><stop offset="0" stop-color="#ffb163"/><stop offset="1" stop-color="#fe5f27"/></linearGradient></defs><path class="a" d="M34.813,0h8.374C53,0,58.27,1.358,63.036,3.907A26.579,26.579,0,0,1,74.093,14.964C76.642,19.73,78,25,78,34.813v8.374C78,53,76.642,58.27,74.093,63.036A26.579,26.579,0,0,1,63.036,74.093C58.27,76.642,53,78,43.187,78H34.813C25,78,19.73,76.642,14.964,74.093A26.579,26.579,0,0,1,3.907,63.036C1.358,58.27,0,53,0,43.187V34.813C0,25,1.358,19.73,3.907,14.964A26.578,26.578,0,0,1,14.964,3.907C19.73,1.358,25,0,34.813,0Z" transform="translate(0)"/><g transform="translate(18 17.617)"><path class="b" d="M3.02,6.479,26.75.139a4.081,4.081,0,0,1,5,2.9l4.572,17.166a4.106,4.106,0,0,1-2.879,5.025L9.712,31.57a4.081,4.081,0,0,1-5-2.9L.141,11.5A4.106,4.106,0,0,1,3.02,6.479Z" transform="translate(5.538 0)"/><path class="c" d="M31.639,31.7H4.746A4.756,4.756,0,0,1,0,26.946V4.756A4.749,4.749,0,0,1,4.746,0H31.639a4.749,4.749,0,0,1,4.746,4.756v22.19A4.756,4.756,0,0,1,31.639,31.7ZM4.746,22.19a1.585,1.585,0,0,0,0,3.171H30.057a1.585,1.585,0,0,0,0-3.171Zm15.82-7.925a1.585,1.585,0,0,0,0,3.171h7.909a1.585,1.585,0,0,0,0-3.171ZM7.91,11.364h0l6.421,4.929a1.564,1.564,0,0,0,3.069-.444V7.925a1.582,1.582,0,1,0-3.164,0v4.09L7.752,7.259a1.582,1.582,0,0,0-3.006.666v7.925a1.582,1.582,0,1,0,3.164,0V11.364ZM20.566,6.34a1.585,1.585,0,0,0,0,3.17h7.909a1.585,1.585,0,0,0,0-3.17Z" transform="translate(0 10.299)"/></g></svg>