<svg xmlns="http://www.w3.org/2000/svg" xmlns:xlink="http://www.w3.org/1999/xlink" width="78" height="78" viewBox="0 0 78 78"><defs><style>.a{fill:url(#a);}.b{fill:#fff;}</style><linearGradient id="a" x1="0.5" x2="0.5" y2="1" gradientUnits="objectBoundingBox"><stop offset="0" stop-color="#6fd1f9"/><stop offset="1" stop-color="#407dea"/></linearGradient></defs><g transform="translate(0.001)"><path class="a" d="M34.813,0h8.374C53,0,58.27,1.358,63.036,3.907A26.579,26.579,0,0,1,74.093,14.964C76.642,19.73,78,25,78,34.813v8.374C78,53,76.642,58.27,74.093,63.036A26.579,26.579,0,0,1,63.036,74.093C58.27,76.642,53,78,43.187,78H34.813C25,78,19.73,76.642,14.964,74.093A26.579,26.579,0,0,1,3.907,63.036C1.358,58.27,0,53,0,43.187V34.813C0,25,1.358,19.73,3.907,14.964A26.578,26.578,0,0,1,14.964,3.907C19.73,1.358,25,0,34.813,0Z" transform="translate(-0.001)"/><g transform="translate(22.034 14.722)"><path class="b" d="M18.307,17.471a1.577,1.577,0,0,1-1.622-.989V15.094H3.3v1.388a1.578,1.578,0,0,1-1.622.989A1.7,1.7,0,0,1,0,16.482V7.466L0,7.46C.253,6.822,2.459,1.211,2.8.576A1.379,1.379,0,0,1,4.03,0c.084,0,.137.005.138.005H15.821S15.874,0,15.959,0A1.379,1.379,0,0,1,17.19.576c.353.662,2.774,6.828,2.8,6.89v9.016A1.7,1.7,0,0,1,18.307,17.471ZM15.962,8.627a1.691,1.691,0,1,0,1.7,1.691A1.7,1.7,0,0,0,15.962,8.627Zm-11.936,0a1.691,1.691,0,1,0,1.7,1.691A1.7,1.7,0,0,0,4.026,8.627ZM4.267,1.38a.507.507,0,0,0-.472.263c-.147.307-1.5,4.418-1.518,4.459,0,0,.017.261.233.261H17.478c.216,0,.233-.258.233-.261-.014-.041-1.372-4.154-1.518-4.459a.558.558,0,0,0-.531-.26H4.326A.5.5,0,0,0,4.267,1.38Z" transform="translate(13.637 31.092)"/><path class="b" d="M296.588,290.739a3.212,3.212,0,0,1-3.212-3.212V245.388a3.212,3.212,0,0,1,3.212-3.212h17.917a12.495,12.495,0,1,1,0,24.99l-14.7,0v20.363A3.212,3.212,0,0,1,296.588,290.739Zm3.212-29.984h14.7a6.071,6.071,0,0,0,0-12.139H299.8Z" transform="translate(-293.376 -242.176)"/></g></g></svg>