<svg xmlns="http://www.w3.org/2000/svg" xmlns:xlink="http://www.w3.org/1999/xlink" width="78" height="78" viewBox="0 0 78 78"><defs><style>.a{fill:url(#a);}.b,.c{fill:#fff;}.b{opacity:0.66;}.d{fill:#06dab2;}</style><linearGradient id="a" x1="0.5" x2="0.5" y2="1" gradientUnits="objectBoundingBox"><stop offset="0" stop-color="#06eec4"/><stop offset="1" stop-color="#06b791"/></linearGradient></defs><g transform="translate(24 24)"><path class="a" d="M34.813,0h8.374C53,0,58.27,1.358,63.036,3.907A26.579,26.579,0,0,1,74.093,14.964C76.642,19.73,78,25,78,34.813v8.374C78,53,76.642,58.27,74.093,63.036A26.579,26.579,0,0,1,63.036,74.093C58.27,76.642,53,78,43.187,78H34.813C25,78,19.73,76.642,14.964,74.093A26.579,26.579,0,0,1,3.907,63.036C1.358,58.27,0,53,0,43.187V34.813C0,25,1.358,19.73,3.907,14.964A26.578,26.578,0,0,1,14.964,3.907C19.73,1.358,25,0,34.813,0Z" transform="translate(-24 -24)"/><g transform="translate(-4.477 -6.552)"><path class="b" d="M130.1,112.4l33.447,18.606a3.7,3.7,0,0,0,5.507-3.238V94.907a6.536,6.536,0,0,0-6.536-6.536H136.633a6.534,6.534,0,0,0-6.534,6.536Z" transform="translate(-130.099 -88.371)"/><path class="c" d="M169.053,112.4l-33.447,18.606a3.7,3.7,0,0,1-5.507-3.238V94.907a6.534,6.534,0,0,1,6.534-6.536h25.884a6.536,6.536,0,0,1,6.536,6.536Z" transform="translate(-130.099 -88.371)"/><path class="d" d="M351.835,234.288l1.824,3.71a1.1,1.1,0,0,0,.828.6l4.1.594a1.1,1.1,0,0,1,.612,1.878l-2.965,2.889a1.11,1.11,0,0,0-.318.99l.7,4.08a1.1,1.1,0,0,1-1.6,1.159l-3.663-1.925a1.1,1.1,0,0,0-1.026,0l-3.663,1.925a1.1,1.1,0,0,1-1.6-1.172l.7-4.067a1.107,1.107,0,0,0-.315-.977l-2.965-2.9a1.1,1.1,0,0,1,.61-1.878l4.1-.594a1.1,1.1,0,0,0,.831-.6l1.824-3.71a1.1,1.1,0,0,1,1.993,0Z" transform="translate(-331.362 -226.265)"/></g></g></svg>