<svg xmlns="http://www.w3.org/2000/svg" xmlns:xlink="http://www.w3.org/1999/xlink" width="78" height="78" viewBox="0 0 78 78"><defs><style>.a{fill:url(#a);}.b,.c{fill:#fff;}.b{opacity:0.66;}.d{fill:#57a6f1;}</style><linearGradient id="a" x1="0.5" x2="0.5" y2="1" gradientUnits="objectBoundingBox"><stop offset="0" stop-color="#6fd1f9"/><stop offset="1" stop-color="#407dea"/></linearGradient></defs><g transform="translate(24 24)"><path class="a" d="M34.813,0h8.374C53,0,58.27,1.358,63.036,3.907A26.579,26.579,0,0,1,74.093,14.964C76.642,19.73,78,25,78,34.813v8.374C78,53,76.642,58.27,74.093,63.036A26.579,26.579,0,0,1,63.036,74.093C58.27,76.642,53,78,43.187,78H34.813C25,78,19.73,76.642,14.964,74.093A26.579,26.579,0,0,1,3.907,63.036C1.358,58.27,0,53,0,43.187V34.813C0,25,1.358,19.73,3.907,14.964A26.578,26.578,0,0,1,14.964,3.907C19.73,1.358,25,0,34.813,0Z" transform="translate(-24 -24)"/><g transform="translate(-6 -6.636)"><path class="b" d="M492.39,298.489h18.521a3.76,3.76,0,0,0,3.758-3.758V271.859a3.757,3.757,0,0,0-2.85-3.645l-14.766-3.684a3.755,3.755,0,0,0-4.662,3.643Z" transform="translate(-472.669 -255.217)"/><path class="c" d="M134.546,127.517H111.012a4.772,4.772,0,0,1-4.772-4.772V93.7a4.772,4.772,0,0,1,3.616-4.628l18.759-4.689a4.772,4.772,0,0,1,5.931,4.639Z" transform="translate(-106.24 -84.244)"/><path class="d" d="M252.632,359.87h-9.9a2.092,2.092,0,1,1,0-4.184h9.9a2.092,2.092,0,1,1,0,4.184Zm0,9.992h-9.9a2.092,2.092,0,0,1,0-4.184h9.9a2.092,2.092,0,0,1,0,4.184Z" transform="translate(-233.776 -341.823)"/></g></g></svg>