<svg xmlns="http://www.w3.org/2000/svg" xmlns:xlink="http://www.w3.org/1999/xlink" width="78" height="78.001" viewBox="0 0 78 78.001"><defs><style>.a{fill:url(#a);}.b,.c{fill:#fff;}.b{opacity:0.66;}</style><linearGradient id="a" x1="0.5" x2="0.5" y2="1" gradientUnits="objectBoundingBox"><stop offset="0" stop-color="#06eec4"/><stop offset="1" stop-color="#06b791"/></linearGradient></defs><g transform="translate(0)"><path class="a" d="M34.813,78c-9.819,0-15.083-1.358-19.85-3.907A26.578,26.578,0,0,1,3.907,63.037C1.357,58.27,0,53.005,0,43.188V34.813C0,25,1.357,19.73,3.907,14.964A26.58,26.58,0,0,1,14.963,3.907C19.73,1.358,24.995,0,34.813,0h8.374C53,0,58.27,1.358,63.036,3.907A26.577,26.577,0,0,1,74.093,14.964C76.643,19.73,78,25,78,34.813v8.375c0,9.818-1.357,15.083-3.907,19.849A26.576,26.576,0,0,1,63.036,74.093C58.27,76.643,53,78,43.187,78Z"/><g transform="translate(16.666 16.667)"><path class="b" d="M435.773,180.455q2.273-1.688,4.4-3.574a1.919,1.919,0,0,1,.358-.23,22.256,22.256,0,0,0-3.682-6.118,24.166,24.166,0,0,1-3.785,5.568A30.744,30.744,0,0,1,435.773,180.455Zm5.511-1.63c-1.458,1.266-3.037,2.519-4.584,3.65a31.653,31.653,0,0,1,1.515,4.488,23.241,23.241,0,0,1,3.682-.55c.038,0,.121,0,.179.006.032-.492.051-.991.051-1.49a22.42,22.42,0,0,0-.844-6.105Zm.537,9.82a22.645,22.645,0,0,0-3.12.467,31.271,31.271,0,0,1,.524,5.664v1.189A22.176,22.176,0,0,0,441.821,188.645Zm-10.133-14.288a21.068,21.068,0,0,0,3.375-5.146,1.759,1.759,0,0,1,.224-.358,22.389,22.389,0,0,0-21.787-5.357A33.161,33.161,0,0,1,431.688,174.357Z" transform="translate(-397.46 -162.6)"/><path class="c" d="M203.92,210.2a21,21,0,0,0,29.727,1.189c-4.82-5.766-12.159-9.615-20.438-10.887a22.39,22.39,0,0,0-9.609,9.43A3.59,3.59,0,0,1,203.92,210.2Zm36.631,20.048a28.866,28.866,0,0,0-.46-5.07,21.143,21.143,0,0,0-14.1,17.414,22.3,22.3,0,0,0,14.467-7.857C240.519,233.813,240.551,231.844,240.551,230.246Z" transform="translate(-200.979 -198.077)"/><path class="c" d="M164.793,397.25a66.819,66.819,0,0,0,34.292-11.865,29.6,29.6,0,0,0-2.455-4.04,23.2,23.2,0,0,1-32.386-1.144,22.386,22.386,0,0,0,.115,17.114A3.118,3.118,0,0,1,164.793,397.25Z" transform="translate(-162.6 -366.289)"/><path class="c" d="M225.91,516.534a23.232,23.232,0,0,1,15.861-19.518,28.91,28.91,0,0,0-1.24-3.817,69.219,69.219,0,0,1-34.63,11.974,22.332,22.332,0,0,0,19.569,11.558c.147,0,.288,0,.428-.006A1.6,1.6,0,0,1,225.91,516.534Z" transform="translate(-203.132 -472.065)"/></g></g></svg>