<svg xmlns="http://www.w3.org/2000/svg" xmlns:xlink="http://www.w3.org/1999/xlink" width="78" height="78" viewBox="0 0 78 78"><defs><style>.a{fill:url(#a);}.b,.c{fill:#fff;}.b{opacity:0.66;}</style><linearGradient id="a" x1="0.5" x2="0.5" y2="1" gradientUnits="objectBoundingBox"><stop offset="0" stop-color="#ffb163"/><stop offset="1" stop-color="#fe5f27"/></linearGradient></defs><path class="a" d="M34.813,0h8.374C53,0,58.27,1.358,63.036,3.907A26.579,26.579,0,0,1,74.093,14.964C76.642,19.73,78,25,78,34.813v8.374C78,53,76.642,58.27,74.093,63.036A26.579,26.579,0,0,1,63.036,74.093C58.27,76.642,53,78,43.187,78H34.813C25,78,19.73,76.642,14.964,74.093A26.579,26.579,0,0,1,3.907,63.036C1.358,58.27,0,53,0,43.187V34.813C0,25,1.358,19.73,3.907,14.964A26.578,26.578,0,0,1,14.964,3.907C19.73,1.358,25,0,34.813,0Z" transform="translate(0 0)"/><g transform="translate(14.872 18.056)"><path class="b" d="M46.029,820.582h49v4.009h-49Z" transform="translate(-46.029 -783.109)"/><path class="c" d="M93.419,136.076c.024-.435.04-.867.04-1.3a22.881,22.881,0,0,0-16.417-21.917,6.677,6.677,0,0,0,.051-.805,6.48,6.48,0,1,0-12.959,0,6.676,6.676,0,0,0,.052.805,22.878,22.878,0,0,0-16.419,21.917c0,.432.019.864.043,1.3H46.08v4.009h49v-4.009ZM60,130.693l-3.789-1.315c2.807-8.082,8.917-8.7,9.185-8.726l.349,4h.03c-.161.013-3.867.521-5.774,6.046Z" transform="translate(-46.077 -105.574)"/></g></svg>