<svg xmlns="http://www.w3.org/2000/svg" xmlns:xlink="http://www.w3.org/1999/xlink" width="78" height="78" viewBox="0 0 78 78"><defs><style>.a{fill:url(#a);}.b,.d{fill:#fff;}.c{fill:#d3dcfd;}.c,.d{opacity:0.66;}.e{fill:#8aa4fb;}</style><linearGradient id="a" x1="1.015" y1="0.23" x2="0.183" y2="-0.136" gradientUnits="objectBoundingBox"><stop offset="0" stop-color="#8ba5fb"/><stop offset="1" stop-color="#6989f7"/></linearGradient></defs><g transform="translate(0 113.685)"><path class="a" d="M0,26.591A26.591,26.591,0,0,1,26.591,0H51.409A26.591,26.591,0,0,1,78,26.591V51.409A26.591,26.591,0,0,1,51.409,78H26.591A26.591,26.591,0,0,1,0,51.409Z" transform="translate(0 -113.685)"/><g transform="translate(19.755 -97.49)"><path class="b" d="M133.3,174.966H107.835a7.022,7.022,0,0,1-7.022-7.022V141.32a7.022,7.022,0,0,1,7.022-7.022h26.548a7.022,7.022,0,0,1,7.022,7.022v25.546a8.1,8.1,0,0,1-8.1,8.1Z" transform="translate(-100.813 -130.29)"/><path class="c" d="M485.507,508.42v-9.947a12.38,12.38,0,1,0-17.239,17.733h9.45a7.788,7.788,0,0,0,7.789-7.786Z" transform="translate(-444.915 -471.53)"/><path class="d" d="M274.768,67.4a2.076,2.076,0,0,1-2.077-2.077V60.394a2.077,2.077,0,1,1,4.154,0v4.932a2.079,2.079,0,0,1-2.077,2.077Zm18.5,0a2.076,2.076,0,0,1-2.077-2.077V60.394a2.077,2.077,0,0,1,4.154,0v4.932a2.079,2.079,0,0,1-2.077,2.077Z" transform="translate(-263.625 -58.317)"/><path class="d" d="M272.691,134.3v3a2.077,2.077,0,1,0,4.154,0v-3Zm18.5,0v3a2.077,2.077,0,1,0,4.154,0v-3Z" transform="translate(-263.625 -130.29)"/><path class="e" d="M200.8,293.652H171.787a2.161,2.161,0,1,1,0-4.321H200.8a2.161,2.161,0,1,1,0,4.321Zm-25.509,9.941h-3.5a2.161,2.161,0,1,1,0-4.321h3.5a2.161,2.161,0,1,1,0,4.321Zm10.031,0h-3.5a2.161,2.161,0,1,1,0-4.321h3.5a2.161,2.161,0,1,1,0,4.321Zm15.986,15.84a2.16,2.16,0,0,1-1.529-.632l-4.146-4.146a2.158,2.158,0,0,1-.632-1.529v-5.25a2.161,2.161,0,0,1,4.321,0v4.356l3.514,3.514a2.159,2.159,0,0,1-1.529,3.687Z" transform="translate(-165.996 -277.145)"/><path class="e" d="M201.306,319.434a2.16,2.16,0,0,1-1.529-.632l-4.146-4.146a2.158,2.158,0,0,1-.632-1.529v-5.25a2.161,2.161,0,0,1,4.321,0v4.356l3.514,3.514a2.159,2.159,0,0,1-1.529,3.687Z" transform="translate(-165.996 -277.145)"/></g></g></svg>