<svg xmlns="http://www.w3.org/2000/svg" xmlns:xlink="http://www.w3.org/1999/xlink" width="78" height="78" viewBox="0 0 78 78"><defs><style>.a{fill:url(#a);}.b{fill:#fff;}.c{fill:#ffc837;opacity:0.66;}.d{fill:#ffc734;}</style><linearGradient id="a" x1="0.089" y1="0.25" x2="0.589" y2="1.073" gradientUnits="objectBoundingBox"><stop offset="0" stop-color="#ffca3f"/><stop offset="1" stop-color="#fb0"/></linearGradient></defs><path class="a" d="M0,26.591A26.591,26.591,0,0,1,26.591,0H51.409A26.591,26.591,0,0,1,78,26.591V51.409A26.591,26.591,0,0,1,51.409,78H26.591A26.591,26.591,0,0,1,0,51.409Z" transform="translate(0 0)"/><g transform="translate(17.067 17.964)"><path class="b" d="M176.435,100.557m5.166,0h28q5.167,0,5.167,5.166v31.739q0,5.167-5.167,5.167h-28q-5.166,0-5.166-5.167V105.723Q176.435,100.557,181.6,100.557Z" transform="translate(-171.365 -100.557)"/><path class="c" d="M85.28,246.188h-6.3a2.595,2.595,0,1,1,0-5.19h6.3a2.595,2.595,0,1,1,0,5.19Zm0,11.3h-6.3a2.595,2.595,0,1,1,0-5.19h6.3a2.595,2.595,0,0,1,0,5.19Zm0,11.3h-6.3a2.595,2.595,0,1,1,0-5.19h6.3a2.595,2.595,0,1,1,0,5.19Z" transform="translate(-76.39 -233.88)"/><path class="d" d="M461.36,307.926l-2.712-2.167a1.438,1.438,0,0,0-2.019.2l-10.255,12.279a1.471,1.471,0,0,0-.306.618l-.815,3.633a1.469,1.469,0,0,0,.493,1.458,1.45,1.45,0,0,0,1.233.3,1.319,1.319,0,0,0,.285-.1l3.755-1.682a1.448,1.448,0,0,0,.519-.4l10.037-12.061a1.474,1.474,0,0,0-.215-2.076Z" transform="translate(-426.523 -295.052)"/></g></svg>