<svg xmlns="http://www.w3.org/2000/svg" xmlns:xlink="http://www.w3.org/1999/xlink" width="78" height="78" viewBox="0 0 78 78"><defs><style>.a{fill:url(#a);}.b,.c{opacity:0.3;}.c,.d{fill:#fff;}.e{fill:rgba(255,255,255,0.5);}</style><linearGradient id="a" x1="0.5" x2="0.5" y2="1" gradientUnits="objectBoundingBox"><stop offset="0" stop-color="#6fd1f9"/><stop offset="1" stop-color="#407dea"/></linearGradient></defs><path class="a" d="M34.813,0h8.374C53,0,58.27,1.358,63.036,3.907A26.579,26.579,0,0,1,74.093,14.964C76.642,19.73,78,25,78,34.813v8.374C78,53,76.642,58.27,74.093,63.036A26.579,26.579,0,0,1,63.036,74.093C58.27,76.642,53,78,43.187,78H34.813C25,78,19.73,76.642,14.964,74.093A26.579,26.579,0,0,1,3.907,63.036C1.358,58.27,0,53,0,43.187V34.813C0,25,1.358,19.73,3.907,14.964A26.578,26.578,0,0,1,14.964,3.907C19.73,1.358,25,0,34.813,0Z"/><g transform="translate(20.001 20.091)"><g class="b" transform="translate(5 18.427)"><path class="c" d="M3.24,6.48A3.24,3.24,0,0,1,3.24,0C5.029,0,6.48,3.24,6.48,3.24S5.029,6.48,3.24,6.48Z"/><path class="c" d="M3.24,6.48A3.24,3.24,0,1,1,6.48,3.24,3.241,3.241,0,0,1,3.24,6.48Z" transform="translate(22.69)"/></g><path class="d" d="M34.792,33.471a3,3,0,0,1-3.083-1.895v-2.66H6.279v2.659a3,3,0,0,1-3.083,1.9,3.228,3.228,0,0,1-3.2-1.9V14.3l0-.011C.48,13.07,4.674,2.32,5.318,1.1A2.612,2.612,0,0,1,7.658,0c.161,0,.261.01.262.01H30.068s.1-.01.262-.01a2.612,2.612,0,0,1,2.34,1.1c.672,1.268,5.272,13.08,5.318,13.2V31.576A3.235,3.235,0,0,1,34.792,33.471ZM30.336,16.527a3.239,3.239,0,1,0,3.239,3.239A3.242,3.242,0,0,0,30.336,16.527Zm-22.684,0a3.239,3.239,0,1,0,3.238,3.239A3.243,3.243,0,0,0,7.652,16.527ZM8.11,2.644a.961.961,0,0,0-.9.5c-.279.588-2.858,8.463-2.885,8.543,0,0,.033.5.443.5H33.217c.41,0,.443-.495.443-.5-.026-.079-2.607-7.959-2.884-8.543a1.055,1.055,0,0,0-1.009-.5H8.221A.947.947,0,0,0,8.11,2.644Z" transform="translate(0 2.167)"/><rect class="e" width="21" height="3" transform="translate(8.5)"/></g></svg>