<svg xmlns="http://www.w3.org/2000/svg" xmlns:xlink="http://www.w3.org/1999/xlink" width="78" height="78" viewBox="0 0 78 78"><defs><style>.a{fill:url(#a);}.b,.d{fill:#fff;}.c{fill:#ffbf10;}.d{opacity:0.66;}</style><linearGradient id="a" x1="0.089" y1="0.25" x2="0.589" y2="1.073" gradientUnits="objectBoundingBox"><stop offset="0" stop-color="#ffca3f"/><stop offset="1" stop-color="#fb0"/></linearGradient></defs><path class="a" d="M0,26.591A26.591,26.591,0,0,1,26.591,0H51.409A26.591,26.591,0,0,1,78,26.591V51.409A26.591,26.591,0,0,1,51.409,78H26.591A26.591,26.591,0,0,1,0,51.409Z"/><path class="b" d="M36.155,14.39a1.241,1.241,0,0,0,1.069-1.358V3.6c0-1.987-1.27-3.6-2.837-3.6H2.781C1.215,0-.055,1.611-.055,3.6v9.434a1.56,1.56,0,0,0,.313.96.97.97,0,0,0,.757.4c1.7-.039,3.157,1.555,3.372,3.7a4.853,4.853,0,0,1-.826,3.178,2.98,2.98,0,0,1-2.415,1.346H1.012A1.241,1.241,0,0,0-.057,23.968V33.4c0,1.987,1.27,3.6,2.837,3.6H34.386c1.567,0,2.838-1.608,2.838-3.6V23.968a1.239,1.239,0,0,0-1.069-1.356h-.146a2.98,2.98,0,0,1-2.415-1.346,4.853,4.853,0,0,1-.826-3.178c.216-2.151,1.678-3.748,3.387-3.7Z" transform="translate(20.416 20.902)"/><path class="c" d="M383.271,202.524a14.3,14.3,0,0,1-2.342,8.224l1.973,1.8a16.045,16.045,0,0,0,2.815-7.823h9.9v4.051c0,.638-.247,1.027-.739,1.027a26.252,26.252,0,0,1-3.013-.122l.688,2.519h3.187a2.192,2.192,0,0,0,2.519-2.448V190.408H383.271v12.116Zm2.59-9.649H395.6v3.449H385.86Zm0,5.845H395.6v3.651H385.86v-3.649Z" transform="translate(-351.095 -162.255)"/><path class="d" d="M138.14,109.078l5.262,9.36h-27.61l17.868-10.591a3.234,3.234,0,0,1,4.481,1.231Z" transform="translate(-84.756 -93.512)"/></svg>