<svg xmlns="http://www.w3.org/2000/svg" xmlns:xlink="http://www.w3.org/1999/xlink" width="78" height="78" viewBox="0 0 78 78"><defs><style>.a{fill:url(#a);}.b,.c{fill:#fff;}.b{opacity:0.66;}.d{fill:#fe8946;}</style><linearGradient id="a" x1="0.5" x2="0.5" y2="1" gradientUnits="objectBoundingBox"><stop offset="0" stop-color="#ffb163"/><stop offset="1" stop-color="#fe5f27"/></linearGradient></defs><g transform="translate(0 0)"><path class="a" d="M34.813,0h8.374C53,0,58.27,1.358,63.036,3.907A26.579,26.579,0,0,1,74.093,14.964C76.642,19.73,78,25,78,34.813v8.374C78,53,76.642,58.27,74.093,63.036A26.579,26.579,0,0,1,63.036,74.093C58.27,76.642,53,78,43.187,78H34.813C25,78,19.73,76.642,14.964,74.093A26.579,26.579,0,0,1,3.907,63.036C1.358,58.27,0,53,0,43.187V34.813C0,25,1.358,19.73,3.907,14.964A26.578,26.578,0,0,1,14.964,3.907C19.73,1.358,25,0,34.813,0Z" transform="translate(0 0)"/><g transform="translate(12.085 16.199)"><path class="b" d="M325.965,157.146l-20.2-20.2,14.514-14.514a14.283,14.283,0,0,1,20.2,20.2l-14.515,14.514Z" transform="translate(-290.824 -118.248)"/><path class="c" d="M50.52,122.258a14.281,14.281,0,0,1,20.2,0l22.728,22.728L75.819,162.611a3.639,3.639,0,0,1-5.146,0L50.518,142.456a14.281,14.281,0,0,1,0-20.2Z" transform="translate(-46.335 -118.075)"/><path class="d" d="M194.71,399.4a2.359,2.359,0,0,1-1.666-.687l-8.316-8.28a2.359,2.359,0,1,1,3.329-3.344l8.316,8.283a2.359,2.359,0,0,1-1.663,4.028Z" transform="translate(-176.103 -370.947)"/></g></g></svg>