<svg xmlns="http://www.w3.org/2000/svg" xmlns:xlink="http://www.w3.org/1999/xlink" width="78" height="78" viewBox="0 0 78 78"><defs><style>.a{fill:url(#a);}.b,.c{fill:#fff;}.b{opacity:0.66;}</style><linearGradient id="a" x1="0.5" x2="0.5" y2="1" gradientUnits="objectBoundingBox"><stop offset="0" stop-color="#6fd1f9"/><stop offset="1" stop-color="#407dea"/></linearGradient></defs><g transform="translate(24 24)"><path class="a" d="M34.813,0h8.374C53,0,58.27,1.358,63.036,3.907A26.579,26.579,0,0,1,74.093,14.964C76.642,19.73,78,25,78,34.813v8.374C78,53,76.642,58.27,74.093,63.036A26.579,26.579,0,0,1,63.036,74.093C58.27,76.642,53,78,43.187,78H34.813C25,78,19.73,76.642,14.964,74.093A26.579,26.579,0,0,1,3.907,63.036C1.358,58.27,0,53,0,43.187V34.813C0,25,1.358,19.73,3.907,14.964A26.578,26.578,0,0,1,14.964,3.907C19.73,1.358,25,0,34.813,0Z" transform="translate(-24 -24)"/><g transform="translate(-5.096 -5.683)"><path class="b" d="M246.536,91.853h4.395v3.8h-4.395Zm.2,31.918h4.395V132h-4.395Zm-11.219,7.01,5.486-8.23,3.657,2.438-5.486,8.23Zm17.69-5.792,3.657-2.438,5.485,8.228-3.657,2.438Z" transform="translate(-228.637 -91.853)"/><path class="c" d="M91.187,144.947v30.534H131.38V144.947Zm27.734,22.118H103.837v-3.418h15.084Zm0-9.407H103.837V154.24h15.084Z" transform="translate(-91.187 -142.415)"/></g></g></svg>