<svg xmlns="http://www.w3.org/2000/svg" xmlns:xlink="http://www.w3.org/1999/xlink" width="78" height="78.001" viewBox="0 0 78 78.001"><defs><style>.a{fill:url(#a);}.b,.c{fill:#fff;}.b{opacity:0.66;}</style><linearGradient id="a" x1="0.5" x2="0.5" y2="1" gradientUnits="objectBoundingBox"><stop offset="0" stop-color="#06eec4"/><stop offset="1" stop-color="#06b791"/></linearGradient></defs><g transform="translate(0)"><path class="a" d="M34.813,78c-9.819,0-15.083-1.358-19.85-3.907A26.578,26.578,0,0,1,3.907,63.037C1.357,58.27,0,53.005,0,43.188V34.813C0,25,1.357,19.73,3.907,14.964A26.58,26.58,0,0,1,14.963,3.907C19.73,1.358,24.995,0,34.813,0h8.374C53,0,58.27,1.358,63.036,3.907A26.577,26.577,0,0,1,74.093,14.964C76.643,19.73,78,25,78,34.813v8.375c0,9.818-1.357,15.083-3.907,19.849A26.576,26.576,0,0,1,63.036,74.093C58.27,76.643,53,78,43.187,78Z"/><path class="b" d="M155.037,116.724c0-2.742.033-5.487-.015-8.216a1.861,1.861,0,0,1,1.618-2.108c5.2-1.291,10.378-2.619,15.579-3.892a3.294,3.294,0,0,1,1.515.064q7.51,1.831,15.009,3.725c1.748.436,1.058,6.21,1.058,8.022,0,4.93-16-3.75-34.746,2.4Zm17.885-8.147-.29-.056C170.131,113.083,180.753,118.572,172.922,108.577Z" transform="translate(-131.191 -90.01)"/><path class="c" d="M155.04,115.929c0-2.589.04-5.181-.018-7.758-.024-1.127.548-1.724,1.92-1.991,6.167-1.22,12.316-2.473,18.489-3.676a4.884,4.884,0,0,1,1.8.061q8.912,1.729,17.813,3.518c2.075.412,2.337.691,2.337,2.4,0,4.655.015,9.308,0,13.963-.018,5.205-2.617,9.4-7.669,12.716a44.535,44.535,0,0,1-12.289,6.073,4.653,4.653,0,0,1-2.392,0,40.285,40.285,0,0,1-15.921-9.058,12.373,12.373,0,0,1-4.022-8.709c-.125-2.509-.024-5.028-.024-7.543Zm21.225-7.693-.344-.053c-2.968,4.308-5.951,8.6-8.855,12.932-.862,1.283,0,2.294,1.865,2.328,1.508.027,3.017,0,4.525,0h2.809v9.526c3.108-4.156,5.975-8.328,8.836-12.508,1.219-1.787.457-2.786-2.115-2.793h-6.7Z" transform="translate(-135.002 -82.921)"/></g></svg>