<svg xmlns="http://www.w3.org/2000/svg" xmlns:xlink="http://www.w3.org/1999/xlink" width="78" height="78" viewBox="0 0 78 78"><defs><style>.a{fill:url(#a);}.b,.c{fill:#fff;}.c{opacity:0.66;}</style><linearGradient id="a" x1="1.015" y1="0.23" x2="0.183" y2="-0.136" gradientUnits="objectBoundingBox"><stop offset="0" stop-color="#8ba5fb"/><stop offset="1" stop-color="#6989f7"/></linearGradient></defs><g transform="translate(0 113.685)"><path class="a" d="M0,26.591A26.591,26.591,0,0,1,26.591,0H51.409A26.591,26.591,0,0,1,78,26.591V51.409A26.591,26.591,0,0,1,51.409,78H26.591A26.591,26.591,0,0,1,0,51.409Z" transform="translate(0 -113.685)"/><path class="b" d="M274.759,170.667A18.759,18.759,0,1,1,256,189.426,18.76,18.76,0,0,1,274.759,170.667Zm0,29.7a7.816,7.816,0,1,0-7.816-7.816A7.816,7.816,0,0,0,274.759,200.369Zm.166-4.69a3.127,3.127,0,1,1,3.126-3.127A3.126,3.126,0,0,1,274.925,195.679Z" transform="translate(-235.759 -269.125)"/><path class="c" d="M289.5,206.458a3.261,3.261,0,0,1,.191.328l3.044,6.089a5.4,5.4,0,0,1-4.83,7.816H261.612a5.4,5.4,0,0,1-4.83-7.816l3.044-6.087a2.953,2.953,0,0,1,.191-.328,20.242,20.242,0,0,0,13.18,4.852h3.127a20.241,20.241,0,0,0,13.18-4.854Zm-14.743,1.727Z" transform="translate(-235.759 -272.79)"/></g></svg>