<svg xmlns="http://www.w3.org/2000/svg" xmlns:xlink="http://www.w3.org/1999/xlink" width="78" height="78" viewBox="0 0 78 78"><defs><style>.a{fill:url(#a);}.b{fill:rgba(255,255,255,0.66);}.c{fill:#fff;}.d{fill:#fe8442;}</style><linearGradient id="a" x1="0.5" x2="0.5" y2="1" gradientUnits="objectBoundingBox"><stop offset="0" stop-color="#ffb163"/><stop offset="1" stop-color="#fe5f27"/></linearGradient></defs><path class="a" d="M34.813,0h8.374C53,0,58.27,1.358,63.036,3.907A26.579,26.579,0,0,1,74.093,14.964C76.642,19.73,78,25,78,34.813v8.374C78,53,76.642,58.27,74.093,63.036A26.579,26.579,0,0,1,63.036,74.093C58.27,76.642,53,78,43.187,78H34.813C25,78,19.73,76.642,14.964,74.093A26.579,26.579,0,0,1,3.907,63.036C1.358,58.27,0,53,0,43.187V34.813C0,25,1.358,19.73,3.907,14.964A26.578,26.578,0,0,1,14.964,3.907C19.73,1.358,25,0,34.813,0Z" transform="translate(0)"/><g transform="translate(21.219 21.003)"><path class="b" d="M58.982,113.51m4.683,0H94.414q4.683,0,4.683,4.683v0q0,4.683-4.683,4.683H63.665q-4.683,0-4.683-4.683v0q0-4.683,4.683-4.683Z" transform="translate(-58.982 -113.51)"/><path class="c" d="M161.843,222.669m4.1,0h22.393q4.1,0,4.1,4.1V249.7q0,4.1-4.1,4.1H165.945q-4.1,0-4.1-4.1V226.771Q161.843,222.669,165.945,222.669Z" transform="translate(-157.265 -217.811)"/><path class="d" d="M282.231,403.518H271.749a1.823,1.823,0,1,1,0-3.646h10.482a1.823,1.823,0,0,1,0,3.646Zm6.672,8.089H271.751a1.823,1.823,0,0,1,0-3.646H288.9a1.823,1.823,0,0,1,0,3.646Z" transform="translate(-260.538 -387.127)"/></g></svg>