<svg xmlns="http://www.w3.org/2000/svg" xmlns:xlink="http://www.w3.org/1999/xlink" width="78" height="78.001" viewBox="0 0 78 78.001"><defs><style>.a{fill:url(#a);}.b,.c{fill:#fff;}.c{opacity:0.66;}</style><linearGradient id="a" x1="0.5" x2="0.5" y2="1" gradientUnits="objectBoundingBox"><stop offset="0" stop-color="#06eec4"/><stop offset="1" stop-color="#06b791"/></linearGradient></defs><path class="a" d="M34.813,78c-9.819,0-15.083-1.358-19.85-3.907A26.578,26.578,0,0,1,3.907,63.037C1.357,58.27,0,53.005,0,43.188V34.813C0,25,1.357,19.73,3.907,14.964A26.58,26.58,0,0,1,14.963,3.907C19.73,1.358,24.995,0,34.813,0h8.374C53,0,58.27,1.358,63.036,3.907A26.577,26.577,0,0,1,74.093,14.964C76.643,19.73,78,25,78,34.813v8.375c0,9.818-1.357,15.083-3.907,19.849A26.576,26.576,0,0,1,63.036,74.093C58.27,76.643,53,78,43.187,78Z"/><g transform="translate(-630 -250.167)"><path class="b" d="M41.714,52.812A18.857,18.857,0,0,1,22.857,33.954q0-9.835,16.814-27.873a2.793,2.793,0,0,1,3.948-.139c.048.045.094.091.139.139q16.814,18.04,16.814,27.873A18.857,18.857,0,0,1,41.714,52.812Zm-.5-30.73L34.031,33.256l9.578,2.484v8.691l7.184-12.416-9.578-2.484Z" transform="translate(627.286 255.919)"/><path class="c" d="M29.44,21.815a6.583,6.583,0,0,1-6.583-6.583q0-3.433,5.869-9.73A.975.975,0,0,1,30.1,5.454c.017.016.033.032.048.048q5.87,6.3,5.869,9.73A6.583,6.583,0,0,1,29.44,21.815Z" transform="translate(654.56 257.666)"/></g></svg>