<svg xmlns="http://www.w3.org/2000/svg" xmlns:xlink="http://www.w3.org/1999/xlink" width="78" height="78" viewBox="0 0 78 78"><defs><style>.a{fill:url(#a);}.b,.c{fill:#fff;}.c{opacity:0.66;}</style><linearGradient id="a" x1="0.5" x2="0.5" y2="1" gradientUnits="objectBoundingBox"><stop offset="0" stop-color="#6fd1f9"/><stop offset="1" stop-color="#407dea"/></linearGradient></defs><path class="a" d="M34.813,0h8.374C53,0,58.27,1.358,63.036,3.907A26.579,26.579,0,0,1,74.093,14.964C76.642,19.73,78,25,78,34.813v8.374C78,53,76.642,58.27,74.093,63.036A26.579,26.579,0,0,1,63.036,74.093C58.27,76.642,53,78,43.187,78H34.813C25,78,19.73,76.642,14.964,74.093A26.579,26.579,0,0,1,3.907,63.036C1.358,58.27,0,53,0,43.187V34.813C0,25,1.358,19.73,3.907,14.964A26.578,26.578,0,0,1,14.964,3.907C19.73,1.358,25,0,34.813,0Z"/><g transform="translate(15.786 14.663)"><path class="b" d="M25.689,16.663a12.109,12.109,0,0,1,5,23.138c9.9,4.271,18.53,19.288,11.406,19.288H8.654c-5.91-.005,2.336-14.967,12.088-19.271A12.109,12.109,0,0,1,25.686,16.66Zm1.1,28.616a2.2,2.2,0,0,0-2.2,2.2h0v4.4a2.2,2.2,0,0,0,4.4,0v-4.4a2.2,2.2,0,0,0-2.2-2.2Z" transform="translate(-6.668 -16.66)"/><path class="c" d="M133.752,23.652a12.112,12.112,0,0,1,1.975,17.715c7.616,7.26,10.982,14.016,9.812,20.325a2.09,2.09,0,0,1-4.115-.739l0-.024c.924-4.989-2.344-11.007-10.156-17.981a2.09,2.09,0,0,1,.281-3.333l.11-.118.123-.11a7.929,7.929,0,0,0-.582-12.415,2.092,2.092,0,1,1,2.545-3.32Z" transform="translate(-99.338 -21.574)"/></g></svg>