<svg xmlns="http://www.w3.org/2000/svg" xmlns:xlink="http://www.w3.org/1999/xlink" width="78" height="78" viewBox="0 0 78 78"><defs><style>.a{fill:url(#a);}.b,.c{fill:#fff;}.c{opacity:0.66;}</style><linearGradient id="a" x1="0.5" x2="0.5" y2="1" gradientUnits="objectBoundingBox"><stop offset="0" stop-color="#6fd1f9"/><stop offset="1" stop-color="#407dea"/></linearGradient></defs><g transform="translate(-194 -437.167)"><path class="a" d="M34.813,0h8.374C53,0,58.27,1.358,63.036,3.907A26.579,26.579,0,0,1,74.093,14.964C76.642,19.73,78,25,78,34.813v8.374C78,53,76.642,58.27,74.093,63.036A26.579,26.579,0,0,1,63.036,74.093C58.27,76.642,53,78,43.187,78H34.813C25,78,19.73,76.642,14.964,74.093A26.579,26.579,0,0,1,3.907,63.036C1.358,58.27,0,53,0,43.187V34.813C0,25,1.358,19.73,3.907,14.964A26.578,26.578,0,0,1,14.964,3.907C19.73,1.358,25,0,34.813,0Z" transform="translate(194 437.167)"/><g transform="translate(212.23 453.236)"><path class="b" d="M1423.4,2802.753a3.048,3.048,0,0,1-3.049-3.049v-4.036a10.191,10.191,0,0,1,6.075-9.325l.033-.014h0a10.14,10.14,0,0,1,4.079-.852h12.729l0,0h0a6.669,6.669,0,0,0-.822,1.172l-.007.012-.013.024a7.472,7.472,0,0,0-.857,3.017h0q-.029.364-.029.755v7.974a8.571,8.571,0,0,0,.12,1.332h0a4.792,4.792,0,0,0,1.353,2.988Zm25.078-.006Zm-19.3-26.467-.024-.046h0a11.59,11.59,0,0,1-1.277-5.3v0h0v0a11.651,11.651,0,0,1,19.116-8.946l.007.006.038.032.028.024.016.014a11.652,11.652,0,1,1-17.9,14.224Z" transform="translate(-1420.352 -2759.276)"/><path class="c" d="M1448.479,2802.748a3.759,3.759,0,0,1-3.76-3.76v-9.393a3.759,3.759,0,0,1,3.76-3.759h1.372v-3.659a4.82,4.82,0,0,1,4.817-4.816h3.115a4.82,4.82,0,0,1,4.816,4.816,1.327,1.327,0,0,1-2.653,0,2.166,2.166,0,0,0-2.163-2.163h-1.428l0,0h-1.685a2.166,2.166,0,0,0-2.163,2.163v3.654H1463.1v0h.163a3.76,3.76,0,0,1,3.76,3.759v9.393a3.758,3.758,0,0,1-3.76,3.76Zm6.419-4.235a1.327,1.327,0,1,0,2.654,0v-3.627a2.593,2.593,0,1,0-2.651,0v.284l0,0Z" transform="translate(-1420.691 -2759.271)"/></g></g></svg>