<svg xmlns="http://www.w3.org/2000/svg" xmlns:xlink="http://www.w3.org/1999/xlink" width="78" height="78" viewBox="0 0 78 78"><defs><style>.a{fill:url(#a);}.b,.c{fill:#fff;}.b{opacity:0.66;}</style><linearGradient id="a" x1="1.015" y1="0.23" x2="0.183" y2="-0.136" gradientUnits="objectBoundingBox"><stop offset="0" stop-color="#8ba5fb"/><stop offset="1" stop-color="#6989f7"/></linearGradient></defs><g transform="translate(-341 -437.167)"><path class="a" d="M0,26.591A26.591,26.591,0,0,1,26.591,0H51.409A26.591,26.591,0,0,1,78,26.591V51.409A26.591,26.591,0,0,1,51.409,78H26.591A26.591,26.591,0,0,1,0,51.409Z" transform="translate(341 437.167)"/><g transform="translate(357.192 453.318)"><path class="b" d="M317.232,131.939h-5.7v-4.155h1.549V101.23H283.656v2.015H279.5v-6.17h37.731v34.864Z" transform="translate(-268.619 -97.075)"/><path class="c" d="M91.75,225.28v34.475H105.9l6.645,6.775,7.17-6.784h12.974V225.28Zm20.6,29.424a2.534,2.534,0,1,0,0-.006Zm2.692-8.9a1.018,1.018,0,0,0-.614.947v.991h-4.155v-1a5.161,5.161,0,0,1,3.161-4.781,2.834,2.834,0,1,0-3.024-4.68,2.8,2.8,0,0,0-.89,2.077h-4.155a6.989,6.989,0,1,1,9.68,6.449Z" transform="translate(-91.75 -217.849)"/></g></g></svg>