<svg xmlns="http://www.w3.org/2000/svg" xmlns:xlink="http://www.w3.org/1999/xlink" width="78" height="78" viewBox="0 0 78 78"><defs><style>.a{fill:url(#a);}.b,.c{fill:#fff;}.b{opacity:0.66;}.d{fill:#1fb4bf;}</style><linearGradient id="a" x1="0.5" x2="0.5" y2="1" gradientUnits="objectBoundingBox"><stop offset="0" stop-color="#3ec5be"/><stop offset="1" stop-color="#0fabbf"/></linearGradient></defs><g transform="translate(-488 -437.167)"><path class="a" d="M34.813,0h8.374C53,0,58.27,1.358,63.036,3.907A26.579,26.579,0,0,1,74.093,14.964C76.642,19.73,78,25,78,34.813v8.374C78,53,76.642,58.27,74.093,63.036A26.579,26.579,0,0,1,63.036,74.093C58.27,76.642,53,78,43.187,78H34.813C25,78,19.73,76.642,14.964,74.093A26.579,26.579,0,0,1,3.907,63.036C1.358,58.27,0,53,0,43.187V34.813C0,25,1.358,19.73,3.907,14.964A26.578,26.578,0,0,1,14.964,3.907C19.73,1.358,25,0,34.813,0Z" transform="translate(488 437.167)"/><g transform="translate(504.692 452.939)"><path class="b" d="M182.169,690.688h18.288V703.71H184.491a2.322,2.322,0,0,1-2.322-2.322v-10.7Z" transform="translate(-177.181 -657.157)"/><path class="c" d="M114.361,101.715m-23.276,0a23.276,23.276,0,1,0,23.276-23.276A23.276,23.276,0,0,0,91.085,101.715Z" transform="translate(-91.085 -78.439)"/><path class="d" d="M313.26,349.368l-7.1,7.1a4.119,4.119,0,0,1-5.83,0l-7.122-7.133a8.011,8.011,0,0,1,10.038-12.357,8.011,8.011,0,0,1,10.01,12.394Z" transform="translate(-279.974 -321.605)"/></g></g></svg>