<svg xmlns="http://www.w3.org/2000/svg" xmlns:xlink="http://www.w3.org/1999/xlink" width="78" height="77.852" viewBox="0 0 78 77.852"><defs><style>.a{fill:url(#a);}.b{fill:none;}.c,.d{fill:#fff;}.d{opacity:0.66;}</style><linearGradient id="a" x2="0" y2="1" gradientUnits="objectBoundingBox"><stop offset="0" stop-color="#ffb163"/><stop offset="1" stop-color="#fe5f27"/></linearGradient></defs><g transform="translate(-0.5 0.167)"><path class="a" d="M0,26.842A26.717,26.717,0,0,1,26.591,0H51.409A26.717,26.717,0,0,1,78,26.842V51.01A26.717,26.717,0,0,1,51.409,77.852H26.591A26.717,26.717,0,0,1,0,51.01Z" transform="translate(0.5 -0.167)"/><g transform="translate(22.5 21.833)"><rect class="b" width="44" height="44"/></g><g transform="translate(16.908 15.798)"><path class="c" d="M93.287,104.945l-14.168,8.577H66.988a4.943,4.943,0,0,0-4.831,5.051v12.94a4.943,4.943,0,0,0,4.831,5.048V141.9a6.023,6.023,0,0,0,5.546,6.17,5.635,5.635,0,0,0,4.22-1.681,6.166,6.166,0,0,0,1.769-4.342v-5.487h.518l14.285,7.895a2.081,2.081,0,0,0,2.117-.068,2.281,2.281,0,0,0,1.045-1.925V106.927a2.281,2.281,0,0,0-1.059-1.945,2.081,2.081,0,0,0-2.141-.037Zm-1.316,28.31a1.556,1.556,0,1,1-3.11,0V118.63a1.556,1.556,0,1,1,3.11,0Z" transform="translate(-62.157 -104.667)"/><path class="d" d="M108.4,129.5h5.54a2.254,2.254,0,1,0,0-4.5H108.4a2.254,2.254,0,1,0,0,4.5Zm.214-8.2a2.25,2.25,0,0,0,.87-.177l5.112-2.138a2.254,2.254,0,0,0-1.738-4.156l-5.112,2.138a2.254,2.254,0,0,0,.867,4.333ZM114.6,135.68l-5.112-2.138a2.254,2.254,0,1,0-1.738,4.156l5.112,2.138a2.252,2.252,0,0,0,1.738-4.156Z" transform="translate(-68.279 -106.519)"/></g></g></svg>