<svg xmlns="http://www.w3.org/2000/svg" xmlns:xlink="http://www.w3.org/1999/xlink" width="340" height="115" viewBox="0 0 340 115"><defs><style>.a{fill:url(#a);}.b{fill:url(#b);}.c{fill:url(#c);}</style><linearGradient id="a" x2="0.939" y2="0.725" gradientUnits="objectBoundingBox"><stop offset="0" stop-color="#3ec5be"/><stop offset="1" stop-color="#0fabbf"/></linearGradient><linearGradient id="b" x2="0" y2="1" gradientUnits="objectBoundingBox"><stop offset="0" stop-color="#fff" stop-opacity="0.8"/><stop offset="1" stop-color="#75dfe5"/></linearGradient><linearGradient id="c" x1="0.007" y1="0.014" x2="0.007" y2="1" gradientUnits="objectBoundingBox"><stop offset="0" stop-color="#fff" stop-opacity="0"/><stop offset="0.507" stop-color="#fff" stop-opacity="0.631"/><stop offset="1" stop-color="#fff" stop-opacity="0"/></linearGradient></defs><g transform="translate(-386 -308.167)"><rect class="a" width="340" height="115" rx="21" transform="translate(386 308.167)"/><g transform="translate(439.25 337.167)"><path class="b" d="M23.788,57.837a9.264,9.264,0,0,1-4.807-1.183A14.947,14.947,0,0,1,15.545,53.7c-.7-.762-1.44-1.585-2.3-2.538-1.891-2.108-4.243-4.73-7.622-8.268a16.284,16.284,0,0,1-3.319-5.865A38.579,38.579,0,0,1,.646,30.042,58.708,58.708,0,0,1,0,21.737H.026A3.521,3.521,0,0,1,3.581,18.26,3.586,3.586,0,0,1,6.1,19.28a3.43,3.43,0,0,1,1.045,2.47h.038a57.188,57.188,0,0,0,.4,5.924c.355,2.882,1.106,6.658,2.663,8.281a24.605,24.605,0,0,0,7.56,5.474,1.957,1.957,0,0,0,.759.221.344.344,0,0,0,.352-.2c.187-.437-.373-1.509-.724-1.879-.492-.506-4.7-5.641-4.739-5.693l.064-.052a.4.4,0,0,0-.077-.058.411.411,0,0,1-.077-.058,2.237,2.237,0,0,1-.65-1.638,2.262,2.262,0,0,1,.741-1.621,2.387,2.387,0,0,1,1.62-.63,2.3,2.3,0,0,1,1.7.734,1.057,1.057,0,0,1,.157.221c.027.046.055.093.088.14l.058.046c3.43,2.736,9.592,7.733,12.332,10.45,1.064,1.06,1.722,2.837,1.955,5.283a33.431,33.431,0,0,1-.031,5.389l0,.027c-.031.462-.055.826-.055,1.06a4.218,4.218,0,0,1-2.222,3.137A9.832,9.832,0,0,1,23.788,57.837Zm21.225-.013A9.832,9.832,0,0,1,39.738,56.3a4.218,4.218,0,0,1-2.222-3.138c0-.246-.027-.654-.057-1.086a33.418,33.418,0,0,1-.03-5.385c.233-2.444.891-4.223,1.955-5.287,2.938-2.9,9.707-8.5,11.931-10.336l.458-.379c.014-.026.028-.053.042-.08a.937.937,0,0,1,.2-.294,2.344,2.344,0,0,1,1.708-.724,2.4,2.4,0,0,1,1.614.621,2.272,2.272,0,0,1,.09,3.271.265.265,0,0,1-.06.041.241.241,0,0,0-.081.062l.064.065-.063.081c-1.267,1.614-4.258,5.414-4.676,5.843-.352.37-.912,1.441-.724,1.879a.344.344,0,0,0,.352.2A1.957,1.957,0,0,0,51,41.429a24.83,24.83,0,0,0,7.56-5.474c1.557-1.63,2.307-5.406,2.663-8.286a56.866,56.866,0,0,0,.4-5.919h.039a3.431,3.431,0,0,1,1.045-2.47,3.585,3.585,0,0,1,2.523-1.021,3.521,3.521,0,0,1,3.555,3.477H68.8v.008a58.958,58.958,0,0,1-.647,8.292,38.564,38.564,0,0,1-1.664,6.985,16.283,16.283,0,0,1-3.318,5.862c-3.375,3.535-5.726,6.155-7.616,8.261-.857.955-1.6,1.781-2.3,2.544C51.167,55.952,49.1,57.824,45.012,57.824Zm-10.471-23.2h0c-1.691-1.408-3.823-2.929-6.081-4.539l-.007,0a91.023,91.023,0,0,1-10.2-8.021c-3.333-3.233-4.944-6.1-4.927-8.75a15.074,15.074,0,0,1,1.028-5.492,12.72,12.72,0,0,1,2.636-4.133A11.069,11.069,0,0,1,24.886.18a9.316,9.316,0,0,1,5.568,1.826,12,12,0,0,1,4.062,5.77,13.127,13.127,0,0,1,1.758-3.454A10.712,10.712,0,0,1,38.683,1.9a10.022,10.022,0,0,1,5.9-1.9,10.491,10.491,0,0,1,4.03.805,10.7,10.7,0,0,1,3.518,2.361A11.38,11.38,0,0,1,54.627,7a14.214,14.214,0,0,1,.96,5.23c.03,6.233-8.873,13.015-16.027,18.465l0,0c-1.844,1.4-3.586,2.73-5.014,3.93Z" transform="translate(0 0)"/><path class="c" d="M9.993,7.776c4.224-12.364,21.019-9.324,21.071,4.456.037,7.856-14.155,16.614-21.046,22.4C6.927,32.054,4.1,30.568,0,27.388" transform="translate(24.524)"/></g></g></svg>