<svg xmlns="http://www.w3.org/2000/svg" width="26.292" height="28.833" viewBox="0 0 26.292 28.833"><defs><style>.a{fill:none;stroke:#9d9a9a;stroke-linejoin:round;stroke-miterlimit:10;stroke-width:3px;stroke-dasharray:0 0;}</style></defs><g transform="translate(-8.354 -1.833)"><path class="a" d="M11.646,25.833s11.646-7.08,11.646-15.265C23.292,4.732,18.078,0,11.646,0S0,4.732,0,10.568c0,8.185,11.646,15.265,11.646,15.265Z" transform="translate(9.854 3.333)"/><path class="a" d="M4.479,8.333A4.331,4.331,0,0,0,8.958,4.167,4.331,4.331,0,0,0,4.479,0,4.331,4.331,0,0,0,0,4.167,4.331,4.331,0,0,0,4.479,8.333Z" transform="translate(17.021 10)"/></g></svg>