<svg xmlns="http://www.w3.org/2000/svg" xmlns:xlink="http://www.w3.org/1999/xlink" width="340" height="115" viewBox="0 0 340 115"><defs><style>.a{fill:url(#a);}.b{fill:url(#b);}.c{fill:url(#c);}.d{fill:url(#d);}</style><linearGradient id="a" x1="0.12" x2="0.914" y2="0.895" gradientUnits="objectBoundingBox"><stop offset="0" stop-color="#5d78f9"/><stop offset="1" stop-color="#7d9afe"/></linearGradient><linearGradient id="b" x1="0.5" x2="0.653" y2="1" gradientUnits="objectBoundingBox"><stop offset="0" stop-color="#fff" stop-opacity="0"/><stop offset="1" stop-color="#c5ceff"/></linearGradient><linearGradient id="c" x1="0.5" x2="0.57" y2="1.15" gradientUnits="objectBoundingBox"><stop offset="0" stop-color="#fff" stop-opacity="0"/><stop offset="1" stop-color="#c7cfff"/></linearGradient><linearGradient id="d" x1="0.5" x2="0.5" y2="1" gradientUnits="objectBoundingBox"><stop offset="0" stop-color="#fff" stop-opacity="0"/><stop offset="1" stop-color="#eef1ff"/></linearGradient></defs><g transform="translate(-386 -184.167)"><rect class="a" width="340" height="115" rx="21" transform="translate(386 184.167)"/><g transform="translate(427.74 193.492)"><path class="b" d="M39.86,32.858A16.408,16.408,0,1,0,56.268,16.45,16.408,16.408,0,0,0,39.86,32.858Z" transform="translate(-17.756)"/><path class="c" d="M71.935,96.525H56.789V91.372a3.051,3.051,0,0,1,3.046-3.046h4.387a3.051,3.051,0,0,1,3.046,3.046,1.868,1.868,0,1,0,3.737,0,6.789,6.789,0,0,0-6.782-6.782H59.835a6.789,6.789,0,0,0-6.782,6.782v5.153H51.121a5.293,5.293,0,0,0-5.3,5.3v13.228a5.293,5.293,0,0,0,5.3,5.3H71.935a5.293,5.293,0,0,0,5.3-5.3V101.821A5.3,5.3,0,0,0,71.935,96.525ZM41.349,114.268V103.039a10.284,10.284,0,0,1,2.436-7.014H25.859A14.348,14.348,0,0,0,11.51,110.374v5.684a4.292,4.292,0,0,0,4.294,4.294H43.419c-1.356-.9-2.07-4.081-2.07-6.084Z" transform="translate(0 -42.677)"/></g><g transform="translate(433.89 191.639)"><path class="d" d="M64.471,110.192v-5.64a2.063,2.063,0,0,0-4.126,0v5.64a4.031,4.031,0,1,0,4.126,0Z" transform="translate(0 -42.677)"/></g></g></svg>