<svg xmlns="http://www.w3.org/2000/svg" xmlns:xlink="http://www.w3.org/1999/xlink" width="340" height="239.166" viewBox="0 0 340 239.166"><defs><style>.a{fill:url(#a);}.b{fill:url(#b);}.c{fill:#fff;opacity:0.08;}</style><linearGradient id="a" x1="0.5" x2="0.5" y2="1" gradientUnits="objectBoundingBox"><stop offset="0" stop-color="#6599ff"/><stop offset="1" stop-color="#2680ff"/></linearGradient><linearGradient id="b" x1="0.5" x2="0.5" y2="1" gradientUnits="objectBoundingBox"><stop offset="0" stop-color="#fff" stop-opacity="0.8"/><stop offset="1" stop-color="#3d8cff" stop-opacity="0.8"/></linearGradient></defs><g transform="translate(-24.5 -184.167)"><rect class="a" width="340" height="239" rx="21" transform="translate(24.5 184.167)"/><g transform="translate(460.46 287.413)"><path class="b" d="M-203.531,67.905c3.868,11.592,12.369,25.5,25.514,24.738s20.869-13.908,24.738-25.514c6.184-1.539,6.184-10.816,1.553-14.685,1.1-12.044,4.758-29.34-8.909-29.976-3.7-.17-5.888-4.01-19.923-2.8-8.542.749-17.071,2.274-22.352,7.469-5.408,5.324-5.083,15.617-3.7,26.08C-211.255,56.313-209.716,65.59-203.531,67.905Z" transform="translate(-7.66)"/><path class="b" d="M-169.4,127.107c-4.419,8.5-6.947,18.553-11.366,26.277-.635-5.408-.551-8.966-.635-20.092H-192.13c.635,13.908.635,13.908-.635,20.092-3.163-8.5-6.311-18.553-10.731-26.277-18.949,3.093-32.842,12.369-33.464,38.646h101.041C-135.933,139.476-150.462,130.2-169.4,127.107Z" transform="translate(0 -29.833)"/></g><path class="c" d="M2564.9,3446.509V3307.976a21,21,0,0,1,21-21H2748.5A125.682,125.682,0,0,1,2564.9,3446.509Z" transform="translate(-2540.404 -3102.809)"/><path class="b" d="M82.666,117.221l11.215,12.358-8.928,7.853-6.414-15.694Zm22.43,0L93.881,129.579l8.927,7.853,6.416-15.694Z" transform="translate(180.139 261.708)"/></g></svg>